<svg xmlns="http://www.w3.org/2000/svg" viewBox="0 0 50 50"><path d="M47,15a11.4,11.4,0,0,1-10.1,9.63.74.74,0,0,0,0-.21L39.45,5.78h8.91ZM25,33.34c-1.94,0-4.15-3.39-4.51-9l-1.1-16.7a.74.74,0,0,0-.75-.73h-.05a.79.79,0,0,0-.72.83L19,24.37a16.27,16.27,0,0,0,2.55,8.37,10.59,10.59,0,0,1-6.93-8.5L11.5,1.52h27L35.4,24.24A10.58,10.58,0,0,1,25,33.34Zm5.62,9.07H19.41A10.46,10.46,0,0,0,23,34.7a14,14,0,0,0,1.94.16,14.84,14.84,0,0,0,2-.16,10.56,10.56,0,0,0,3.66,7.71Zm5,3.81V48.5H14.39V46.22A2.28,2.28,0,0,1,16.67,44H33.34a2.27,2.27,0,0,1,2.25,2.26ZM3,15,1.64,5.78h8.89l2.54,18.66v.21A11.44,11.44,0,0,1,3,15ZM49.81,4.51a.77.77,0,0,0-.57-.25H39.66L40.14.85a.86.86,0,0,0,0-.32A.78.78,0,0,0,40,.25a.84.84,0,0,0-.6-.25H10.6a.64.64,0,0,0-.31.07.55.55,0,0,0-.24.18.78.78,0,0,0-.16.28.86.86,0,0,0,0,.32l.46,3.41H.77a.87.87,0,0,0-.32.06.83.83,0,0,0-.26.19A.87.87,0,0,0,0,4.79a.58.58,0,0,0,0,.32L1.5,15.25a12.88,12.88,0,0,0,12,10.92,12.16,12.16,0,0,0,8.11,8.18,9.35,9.35,0,0,1-4.7,8.06h-.18a3.83,3.83,0,0,0-3.8,3.81v3a.78.78,0,0,0,.76.78H36.35a.78.78,0,0,0,.76-.78v-3a3.81,3.81,0,0,0-3.77-3.81h-.21a9.4,9.4,0,0,1-4.67-8.06,12.16,12.16,0,0,0,8.08-8.18,12.88,12.88,0,0,0,12-10.92L50,5.11A1,1,0,0,0,49.81,4.51Z"/></svg>