<svg xmlns="http://www.w3.org/2000/svg" viewBox="0 0 48 45"><path d="M47.14,20.26a2.91,2.91,0,0,0-2.06-.87H42.66a2.41,2.41,0,0,0-2.28-1.76H37.8V11.27a.72.72,0,0,0-.09-.34.64.64,0,0,0-.24-.25L19.25.09A.69.69,0,0,0,18.91,0a.67.67,0,0,0-.34.09L.34,10.68a.67.67,0,0,0-.25.25.69.69,0,0,0-.09.34V32.46a.69.69,0,0,0,.09.34.75.75,0,0,0,.25.25L18.57,43.64a.69.69,0,0,0,.34.09.68.68,0,0,0,.35-.09l9.6-5.57v4a2.83,2.83,0,0,0,.22,1.12,2.77,2.77,0,0,0,.63.95,2.82,2.82,0,0,0,2.05.84H45.08a3,3,0,0,0,1.11-.21,2.92,2.92,0,0,0,1-.63,2.77,2.77,0,0,0,.63-.95A2.84,2.84,0,0,0,48,42.09V22.34A2.94,2.94,0,0,0,47.14,20.26ZM40.41,19a.94.94,0,0,1,.69.29,1,1,0,0,1,.29.7v.07a1,1,0,0,1-.29.7.94.94,0,0,1-.69.29h-4a1,1,0,0,1-.7-.29,1,1,0,0,1-.28-.7V20a1,1,0,0,1,.28-.7,1,1,0,0,1,.7-.29ZM18.91,1.47l7.58,4.4L9.62,15.67,2,11.27Zm-.64,40.39L1.36,32.06V12.46l16.91,9.8Zm.64-20.79L11,16.46l16.87-9.8,7.94,4.61Zm10.79-.81a2.93,2.93,0,0,0-.84,2.08V36.49l-9.23,5.37V22.26l16.81-9.8v5.17h0a2.41,2.41,0,0,0-2.28,1.76H31.76A2.93,2.93,0,0,0,29.7,20.26ZM46.64,42.09a1.53,1.53,0,0,1-.12.6,1.58,1.58,0,0,1-.34.5,1.54,1.54,0,0,1-.51.33,1.35,1.35,0,0,1-.59.11H31.76a1.51,1.51,0,0,1-.59-.11,1.41,1.41,0,0,1-.5-.33,1.58,1.58,0,0,1-.34-.5,1.73,1.73,0,0,1-.11-.6V22.34a1.52,1.52,0,0,1,.11-.6,1.56,1.56,0,0,1,.84-.86,1.52,1.52,0,0,1,.59-.12h2.45A2.36,2.36,0,0,0,35.06,22a2.34,2.34,0,0,0,1.4.45h3.92a2.34,2.34,0,0,0,1.4-.45,2.36,2.36,0,0,0,.85-1.21h2.45a1.59,1.59,0,0,1,1.56,1.58Z"/><path d="M32.07,29.06a.48.48,0,0,0,.22.15.75.75,0,0,0,.26.05h.71a.68.68,0,0,0,.68-.68.7.7,0,0,0-.2-.49.72.72,0,0,0-.48-.2h0V26h1.88a.73.73,0,0,0,.24.34.72.72,0,0,0,.4.12.7.7,0,0,0,.49-.2.72.72,0,0,0,.2-.48v-.46a.69.69,0,0,0-.21-.49.66.66,0,0,0-.48-.2h-3.2a.75.75,0,0,0-.26,0,.71.71,0,0,0-.22.15.54.54,0,0,0-.15.22.86.86,0,0,0-.05.27v3.22a.75.75,0,0,0,.05.26A.54.54,0,0,0,32.07,29.06Z"/><path d="M32.55,35.52h3.21a.68.68,0,0,0,.68-.69V31.61a.7.7,0,0,0-.2-.49.72.72,0,0,0-.48-.2H32.55a.72.72,0,0,0-.48.2.7.7,0,0,0-.2.49v3.22a.68.68,0,0,0,.68.69Zm.68-3.23h1.85v1.86H33.23Z"/><path d="M33.26,40.41h0V38.55h1.84a.72.72,0,0,0,.2.48.7.7,0,0,0,1,0,.73.73,0,0,0,.21-.48v-.66a.74.74,0,0,0-.2-.49.72.72,0,0,0-.49-.22h-3.2a.7.7,0,0,0-.49.22.73.73,0,0,0-.19.49v3.22a.75.75,0,0,0,.05.26.86.86,0,0,0,.15.22.64.64,0,0,0,.22.14.57.57,0,0,0,.26,0h.71a.67.67,0,0,0,.48-.2.68.68,0,0,0,0-1A.67.67,0,0,0,33.26,40.41Z"/><path d="M37.8,25.31a.66.66,0,0,0-.48.2h0l-2,2-.6-.61a1.07,1.07,0,0,0-.22-.15.8.8,0,0,0-.26-.05.75.75,0,0,0-.26.05.71.71,0,0,0-.22.15.62.62,0,0,0-.15.22.65.65,0,0,0,0,.27.58.58,0,0,0,0,.26.54.54,0,0,0,.15.22L34.84,29a.62.62,0,0,0,.22.15.6.6,0,0,0,.26.05.58.58,0,0,0,.26-.05A.48.48,0,0,0,35.8,29l2.48-2.48a.7.7,0,0,0,.2-.49.68.68,0,0,0-.68-.68Z"/><path d="M37.8,37.94a.66.66,0,0,0-.48.2h0l-2,2-.6-.61a.62.62,0,0,0-.22-.15.6.6,0,0,0-.26,0,.58.58,0,0,0-.26,0,.48.48,0,0,0-.22.15.54.54,0,0,0-.15.22.7.7,0,0,0,0,.52.54.54,0,0,0,.15.22l1.08,1.1a1.07,1.07,0,0,0,.22.15.8.8,0,0,0,.26,0,.75.75,0,0,0,.26,0,.71.71,0,0,0,.22-.15l2.48-2.49a.69.69,0,0,0-.48-1.17Z"/><path d="M44.29,26.33H40a.69.69,0,0,0,0,1.37h4.27a.66.66,0,0,0,.48-.2.69.69,0,0,0,0-1A.66.66,0,0,0,44.29,26.33Z"/><path d="M44.29,32.59H40a.67.67,0,0,0-.48.2.68.68,0,0,0,0,1A.67.67,0,0,0,40,34h4.27a.68.68,0,0,0,0-1.36Z"/><path d="M44.29,38.84H40a.69.69,0,0,0,0,1.37h4.27a.66.66,0,0,0,.48-.2.69.69,0,0,0,0-1A.66.66,0,0,0,44.29,38.84Z"/></svg>