<svg xmlns="http://www.w3.org/2000/svg" viewBox="0 0 50 50"><path d="M25,9.47A15.53,15.53,0,1,0,40.53,25,15.54,15.54,0,0,0,25,9.47Zm3.7,21.93a.8.8,0,0,0-.11.37v6.72a13.21,13.21,0,0,1-7.2,0V31.77a.8.8,0,0,0-.11-.37.78.78,0,0,0-.27-.27,7.66,7.66,0,0,1-.4-12.8v7.58a.83.83,0,0,0,.38.68,7.72,7.72,0,0,0,8,0,.71.71,0,0,0,.28-.29.76.76,0,0,0,.1-.39V18.33a7.66,7.66,0,0,1-.4,12.8A.78.78,0,0,0,28.71,31.4ZM30.16,38V32.21a9.16,9.16,0,0,0,4-7.62,9.26,9.26,0,0,0-5.27-8.32.71.71,0,0,0-.73.05.87.87,0,0,0-.27.27.8.8,0,0,0-.11.37v8.52a6.19,6.19,0,0,1-5.64,0V17a.79.79,0,0,0-.36-.64.82.82,0,0,0-.37-.13.71.71,0,0,0-.38.08,9.2,9.2,0,0,0-1.23,15.94V38a14,14,0,1,1,10.32,0Z"/><path d="M49.86,22.43a2,2,0,0,0-.43-.65,2,2,0,0,0-.63-.43A2,2,0,0,0,48,21.2H45.42a20.05,20.05,0,0,0-.83-3.13l2.25-1.33a1.82,1.82,0,0,0,.93-1.18,1.88,1.88,0,0,0-.21-1.49l-1.8-3.14a1.85,1.85,0,0,0-1.2-.92,2,2,0,0,0-1.49.19l-2.28,1.31a26.27,26.27,0,0,0-2.3-2.3L39.82,7A2.11,2.11,0,0,0,40,5.43a2.1,2.1,0,0,0-.35-.68,1.83,1.83,0,0,0-.58-.49L35.93,2.42a2,2,0,0,0-2.7.73L31.94,5.41a20.59,20.59,0,0,0-3.15-.83V2a1.93,1.93,0,0,0-.15-.75,2,2,0,0,0-.42-.64,2.09,2.09,0,0,0-.64-.42A1.93,1.93,0,0,0,26.83,0H23.19a2,2,0,0,0-2,2V4.58a23,23,0,0,0-3.13.83L16.77,3.15a1.85,1.85,0,0,0-.51-.57,1.62,1.62,0,0,0-.69-.32,2,2,0,0,0-1.5.16L10.94,4.26A1.85,1.85,0,0,0,10,5.43,2.06,2.06,0,0,0,10.2,7l1.32,2.26a26.39,26.39,0,0,0-2.31,2.3L7,10.2A2,2,0,0,0,5.46,10a1.74,1.74,0,0,0-.7.33,1.77,1.77,0,0,0-.5.59L2.44,14.07a2,2,0,0,0,.72,2.67l2.28,1.33a21.33,21.33,0,0,0-.86,3.13H2a2,2,0,0,0-2,2V26.8a2,2,0,0,0,2,2H4.58a22.67,22.67,0,0,0,.86,3.15L3.16,33.22a2,2,0,0,0-.72,2.69L4.26,39a1.83,1.83,0,0,0,1.2.92A2,2,0,0,0,7,39.78l2.25-1.31a21.63,21.63,0,0,0,2.31,2.28L10.2,43A2.07,2.07,0,0,0,10,44.54a1.87,1.87,0,0,0,.92,1.18l3.13,1.82a2,2,0,0,0,1.5.2,1.89,1.89,0,0,0,1.2-.92l1.31-2.28a20.58,20.58,0,0,0,3.13.86V48a2,2,0,0,0,.59,1.4,2,2,0,0,0,1.39.58h3.64a2,2,0,0,0,2-2V45.4a19.61,19.61,0,0,0,3.15-.86l1.29,2.28a2,2,0,0,0,2.7.72l3.15-1.82a2,2,0,0,0,.74-2.7l-1.34-2.27a20.72,20.72,0,0,0,2.31-2.28l2.28,1.31a2,2,0,0,0,1.49.18,1.94,1.94,0,0,0,1.2-.89l1.8-3.16a2.06,2.06,0,0,0,.26-.73,2,2,0,0,0,0-.77,2,2,0,0,0-.93-1.19l-2.25-1.29a20.29,20.29,0,0,0,.83-3.15H48a2.2,2.2,0,0,0,.76-.16,1.81,1.81,0,0,0,.63-.43,1.85,1.85,0,0,0,.43-.64A2.17,2.17,0,0,0,50,26.8V23.18A2.12,2.12,0,0,0,49.86,22.43ZM48.5,26.8a.46.46,0,0,1-.46.48H44.77a.74.74,0,0,0-.48.17.77.77,0,0,0-.26.45A18.65,18.65,0,0,1,42.93,32a.8.8,0,0,0,.32.94l2.86,1.61a.63.63,0,0,1,.2.28.28.28,0,0,1,0,.18.44.44,0,0,1-.06.16l-1.8,3.15a.45.45,0,0,1-.28.21.53.53,0,0,1-.37,0L41,36.83A.8.8,0,0,0,40,37a19.34,19.34,0,0,1-3,3,.75.75,0,0,0-.16,1l1.61,2.83a.44.44,0,0,1-.16.63l-3.15,1.81a.42.42,0,0,1-.6-.16l-1.64-2.83a.77.77,0,0,0-.94-.32A19.23,19.23,0,0,1,27.91,44a.73.73,0,0,0-.62.74V48a.45.45,0,0,1-.46.44H23.19a.45.45,0,0,1-.46-.44V44.75a.74.74,0,0,0-.18-.49.84.84,0,0,0-.46-.25A19.72,19.72,0,0,1,18,42.91a.55.55,0,0,0-.25-.07.77.77,0,0,0-.39.11.93.93,0,0,0-.28.28l-1.64,2.83a.34.34,0,0,1-.27.21.37.37,0,0,1-.35-.05l-3.15-1.81a.59.59,0,0,1-.21-.26.68.68,0,0,1,0-.37L13.15,41A.77.77,0,0,0,13,40a18.06,18.06,0,0,1-3-3,.82.82,0,0,0-1-.16L6.2,38.47a.43.43,0,0,1-.35,0,.51.51,0,0,1-.28-.2L3.75,35.15a.56.56,0,0,1,0-.34.53.53,0,0,1,.21-.28l2.83-1.61A.78.78,0,0,0,7.07,32,20.63,20.63,0,0,1,6,27.9a.81.81,0,0,0-.27-.45.79.79,0,0,0-.49-.17H2a.47.47,0,0,1-.44-.48V23.18A.48.48,0,0,1,2,22.7H5.23a.79.79,0,0,0,.49-.17A.84.84,0,0,0,6,22.08,19.83,19.83,0,0,1,7.07,18a.79.79,0,0,0-.32-.94L3.92,15.45a.51.51,0,0,1-.2-.28.49.49,0,0,1,0-.34l1.82-3.14a.52.52,0,0,1,.28-.23.48.48,0,0,1,.35,0L9,13.14a.68.68,0,0,0,.52.09.76.76,0,0,0,.45-.29A19.86,19.86,0,0,1,13,10a.81.81,0,0,0,.25-.45A.79.79,0,0,0,13.15,9L11.52,6.17a.5.5,0,0,1,0-.32.45.45,0,0,1,.21-.28l3.15-1.82a.53.53,0,0,1,.35-.07.48.48,0,0,1,.27.23l1.64,2.84a.78.78,0,0,0,.92.32A18,18,0,0,1,22.09,6a.71.71,0,0,0,.46-.25.7.7,0,0,0,.18-.48V2a.47.47,0,0,1,.14-.33.46.46,0,0,1,.32-.13h3.64a.51.51,0,0,1,.33.13.51.51,0,0,1,.13.33V5.23a.72.72,0,0,0,.62.73A17.85,17.85,0,0,1,32,7.07a.81.81,0,0,0,.94-.32l1.64-2.84a.35.35,0,0,1,.11-.13.31.31,0,0,1,.15-.08.37.37,0,0,1,.18,0,.52.52,0,0,1,.16.06l3.15,1.82a.33.33,0,0,1,.21.28.3.3,0,0,1,0,.16.33.33,0,0,1-.07.16L36.87,9A.77.77,0,0,0,37,10a19.93,19.93,0,0,1,3,2.95.72.72,0,0,0,1,.2l2.82-1.63a.5.5,0,0,1,.36,0,.47.47,0,0,1,.28.24l1.82,3.12a.57.57,0,0,1,0,.35.74.74,0,0,1-.21.28l-2.86,1.61a.81.81,0,0,0-.32.94A19.09,19.09,0,0,1,44,22.08a.72.72,0,0,0,.73.62H48a.48.48,0,0,1,.46.48Z"/></svg>