<svg xmlns="http://www.w3.org/2000/svg" viewBox="0 0 48 46"><path d="M46.82,29.92a10,10,0,0,0-8.15-5.23V11.37a.66.66,0,0,0-.09-.33.67.67,0,0,0-.25-.25L19.68.09A.69.69,0,0,0,19.34,0,.67.67,0,0,0,19,.09L.35,10.78A.88.88,0,0,0,.09,11a.67.67,0,0,0-.09.34V34.63A.66.66,0,0,0,.09,35a.67.67,0,0,0,.25.25L19,45.91a.67.67,0,0,0,.34.09.69.69,0,0,0,.34-.09l10-5.75a10,10,0,0,0,8.65,4.38,10,10,0,0,0,4.8-1.42,9.89,9.89,0,0,0,3.67-13.2ZM30.13,7.65,12.84,17.57l-3.39-2L26.74,5.7Zm-18,11.07V31.1l-1.29-1.44a.77.77,0,0,0-.36-.21.67.67,0,0,0-.42,0L8.74,30V16.79ZM19.34,1.46l6,3.46L8.08,14.84,2,11.37Zm-.68,42.69L1.36,34.24V12.54l6,3.47V31a.9.9,0,0,0,.09.32.66.66,0,0,0,.23.24.68.68,0,0,0,.31.11.76.76,0,0,0,.33-.05l1.81-.74,2.14,2.42a.81.81,0,0,0,.24.17.64.64,0,0,0,.28.06.74.74,0,0,0,.25,0,.64.64,0,0,0,.32-.24.79.79,0,0,0,.13-.39V19.5l5.15,3Zm.68-22.86L14.2,18.35,31.49,8.43l5.14,2.94ZM29,39l-9,5.15V22.46l17.29-9.92V24.69a10,10,0,0,0-8,4.95A9.88,9.88,0,0,0,28,34.28,10,10,0,0,0,29,39ZM44.1,40.67A8.68,8.68,0,0,1,38,43.19h0a8.63,8.63,0,0,1-8-5.3,8.6,8.6,0,0,1,6.3-11.71,8.68,8.68,0,0,1,8.88,3.65A8.52,8.52,0,0,1,44.1,40.67Z"/><path d="M3.11,31a.67.67,0,0,0-.48.2.63.63,0,0,0-.2.47v2.5a.66.66,0,0,0,.2.48.68.68,0,0,0,1,0,.66.66,0,0,0,.2-.48v-2.5a.63.63,0,0,0-.2-.47A.67.67,0,0,0,3.11,31Z"/><path d="M5.83,32.81a.68.68,0,0,0-.68.68v2.25a.67.67,0,0,0,.2.48.68.68,0,0,0,1,0,.67.67,0,0,0,.2-.48V33.49a.68.68,0,0,0-.68-.68Z"/><path d="M8.65,34.66a.7.7,0,0,0-.48.2.67.67,0,0,0-.2.48v2a.68.68,0,0,0,.68.68.67.67,0,0,0,.48-.2.66.66,0,0,0,.2-.48v-2a.67.67,0,0,0-.2-.48A.72.72,0,0,0,8.65,34.66Z"/><path d="M11.37,36.52a.66.66,0,0,0-.48.2.63.63,0,0,0-.2.47v1.72a.67.67,0,0,0,.2.48.69.69,0,0,0,.48.19.71.71,0,0,0,.48-.19.67.67,0,0,0,.2-.48V37.19a.63.63,0,0,0-.2-.47A.67.67,0,0,0,11.37,36.52Z"/><path d="M13.51,40.53a.67.67,0,0,0,.2.48.69.69,0,0,0,.48.19.71.71,0,0,0,.48-.19.72.72,0,0,0,.2-.48V39.05a.7.7,0,0,0-.2-.48.67.67,0,0,0-.48-.2.68.68,0,0,0-.68.68Z"/><path d="M38.67,34.31V28.59a.65.65,0,0,0-.2-.47.68.68,0,0,0-1,0,.65.65,0,0,0-.2.47v6a.72.72,0,0,0,.22.5L40.64,38a.68.68,0,0,0,.49.18A.64.64,0,0,0,41.6,38a.67.67,0,0,0,.18-.48.64.64,0,0,0-.21-.47Z"/></svg>