<svg xmlns="http://www.w3.org/2000/svg" viewBox="0 0 44 28"><path d="M43.78,14a.74.74,0,0,0-.53-.21H39.5V7.64a.75.75,0,0,0-.22-.53.78.78,0,0,0-.53-.21H27V.74a.73.73,0,0,0-.22-.52A.75.75,0,0,0,26.25,0H.75A.75.75,0,0,0,.22.22.73.73,0,0,0,0,.74V23.9a.73.73,0,0,0,.75.73H6.46A3.74,3.74,0,0,0,7.71,27a3.85,3.85,0,0,0,5.11,0,3.79,3.79,0,0,0,1.25-2.4H30.84A3.79,3.79,0,0,0,32.09,27a3.88,3.88,0,0,0,5.11,0,3.74,3.74,0,0,0,1.25-2.41h4.8A.73.73,0,0,0,44,23.9V14.53A.74.74,0,0,0,43.78,14ZM11.9,25.85a2.41,2.41,0,0,1-1.63.68h0a2.35,2.35,0,0,1-2.16-1.42A2.21,2.21,0,0,1,8,23.79a2.25,2.25,0,0,1,.64-1.18,2.35,2.35,0,0,1,2.54-.5,2.3,2.3,0,0,1,1.44,2.13A2.28,2.28,0,0,1,11.9,25.85Zm13.6-2.69H13.93a3.82,3.82,0,0,0-1.38-1.95,3.89,3.89,0,0,0-2.28-.75h0A3.9,3.9,0,0,0,8,21.22,3.8,3.8,0,0,0,6.6,23.16H1.5V1.48h24Zm10.79,2.7a2.35,2.35,0,0,1-3.8-.75,2.32,2.32,0,0,1-.13-1.33A2.26,2.26,0,0,1,33,22.61,2.3,2.3,0,0,1,34.19,22a2.39,2.39,0,0,1,1.35.13,2.29,2.29,0,0,1,1,.85A2.17,2.17,0,0,1,37,24.24,2.27,2.27,0,0,1,36.29,25.86Zm6.21-2.7H38.31a3.68,3.68,0,0,0-1.38-1.93,3.87,3.87,0,0,0-4.55,0A3.73,3.73,0,0,0,31,23.16H27V8.38H38v6.15a.75.75,0,0,0,.22.53.74.74,0,0,0,.53.21H42.5Z"/><path d="M4.75,8.87H20l-2.5,2.46a.81.81,0,0,0-.17.24.73.73,0,0,0-.07.29.72.72,0,0,0,.06.29.67.67,0,0,0,.16.25.82.82,0,0,0,.25.16.71.71,0,0,0,.29,0,.77.77,0,0,0,.3-.06.81.81,0,0,0,.24-.17l3.37-3.32a.73.73,0,0,0,.21-.52A.72.72,0,0,0,21.93,8L18.56,4.7A.75.75,0,0,0,18,4.49a.75.75,0,0,0-.29.06.74.74,0,0,0-.4.4.72.72,0,0,0-.06.29.67.67,0,0,0,.06.28.7.7,0,0,0,.17.24l1.65,1.63H4.75a.75.75,0,0,0-.53.22.72.72,0,0,0,0,1A.75.75,0,0,0,4.75,8.87Z"/><path d="M6.43,19.5a.75.75,0,0,0,.53.22.77.77,0,0,0,.54-.22A.73.73,0,0,0,7.72,19a.75.75,0,0,0-.22-.53l-1.73-1.7h14.5a.73.73,0,0,0,.52-.22A.76.76,0,0,0,21,16a.75.75,0,0,0-.75-.74H5.05L7.5,12.86a.78.78,0,0,0,.16-.24.68.68,0,0,0,0-.56.81.81,0,0,0-.17-.24.78.78,0,0,0-.24-.16.73.73,0,0,0-.58,0,1,1,0,0,0-.24.16L3.06,15.14a.73.73,0,0,0-.21.52.7.7,0,0,0,.21.52Z"/></svg>