<svg xmlns="http://www.w3.org/2000/svg" viewBox="0 0 38 45"><path d="M19,26.46A17.75,17.75,0,0,0,1.36,44.26a.73.73,0,0,0,.73.74H36a.74.74,0,0,0,.74-.74A17.76,17.76,0,0,0,19,26.46ZM2.84,43.52a16.19,16.19,0,0,1,32.36,0Z"/><path d="M18.73,4A10.24,10.24,0,1,0,28.89,14.26,10.21,10.21,0,0,0,18.73,4Zm0,19a8.76,8.76,0,1,1,8.69-8.76A8.74,8.74,0,0,1,18.73,23Z"/><path d="M5.65,20.27H6.73a.74.74,0,0,0,.73-.74V9.64c0-.25,0-.3,0-.49A12.26,12.26,0,0,1,18.73,1.48a12.61,12.61,0,0,1,11.8,8.09v9.36a12.65,12.65,0,0,1-2.79,4.31.75.75,0,0,0,0,1.05.73.73,0,0,0,.52.21.7.7,0,0,0,.52-.22,14,14,0,0,0,2.76-4h.79a5.69,5.69,0,0,0,0-11.37h-.5A14.08,14.08,0,0,0,18.73,0,13.79,13.79,0,0,0,5.91,8.91H5.6a5.69,5.69,0,0,0,.05,11.37ZM32,10.38h.34a4.21,4.21,0,0,1,0,8.41H32Zm-26.36,0H6v8.41H5.65a4.21,4.21,0,0,1,0-8.41Z"/></svg>