<svg xmlns="http://www.w3.org/2000/svg" viewBox="0 0 46 44"><path d="M45.89,16.62a2.18,2.18,0,0,0-1.77-1.49L30.89,13.21,25,1.22a2.2,2.2,0,0,0-3.94,0l-5.92,12L1.88,15.13A2.19,2.19,0,0,0,.67,18.87l9.57,9.33L8,41.43a2.2,2.2,0,0,0,.86,2.14,2.19,2.19,0,0,0,2.3.19l12.14-6.14,11.56,6.07A2.2,2.2,0,0,0,38,41.38L35.76,28.2l9.57-9.32A2.19,2.19,0,0,0,45.89,16.62ZM44.3,17.81,34.16,27.68l2.39,14a.67.67,0,0,1-.28.69.69.69,0,0,1-.74,0L23.29,35.94,10.45,42.43a.7.7,0,0,1-1-.75l2.4-14L1.7,17.81a.72.72,0,0,1-.18-.73.7.7,0,0,1,.58-.48l14-2L22.37,1.88A.7.7,0,0,1,23,1.49a.71.71,0,0,1,.64.39L29.9,14.57l14,2a.7.7,0,0,1,.58.48A.72.72,0,0,1,44.3,17.81Z"/></svg>