<svg xmlns="http://www.w3.org/2000/svg" viewBox="0 0 36.98 33"><polygon points="16.63 27.38 34.42 27.38 34.43 25.05 16.63 25.05 16.63 27.38" style="fill:none"/><path d="M15.91,28.86a.74.74,0,0,1-.75-.73h0V25.05h-.42a.74.74,0,0,1-.74-.74v-2.5a3.33,3.33,0,0,1,3.3-3.31h.06a4.18,4.18,0,0,0,3.85-2.82,8.89,8.89,0,0,0,.55-2.33,4.77,4.77,0,0,1-1.19-3.16,4.87,4.87,0,0,1,4.08-4.78V1.52H1.5v30H24.65V28.86ZM13.17,11.75a.5.5,0,0,1-.5.5h-9a.5.5,0,0,1-.5-.5v-.5a.5.5,0,0,1,.5-.5h9a.5.5,0,0,1,.5.5Zm0-3.92a.5.5,0,0,1-.5.5h-9a.5.5,0,0,1-.5-.5v-.5a.5.5,0,0,1,.5-.5h9a.52.52,0,0,1,.5.5Z" transform="translate(0 0)" style="fill:none"/><path d="M33.67,20a5.91,5.91,0,0,1-5.35-3.87,9.37,9.37,0,0,1-.65-3,.77.77,0,0,1,.22-.54,3.37,3.37,0,0,0,1-2.4h0a3.41,3.41,0,0,0-6.82,0h0a3.33,3.33,0,0,0,1,2.38.76.76,0,0,1,.22.57,10.24,10.24,0,0,1-.71,3.14A5.65,5.65,0,0,1,17.28,20a1.84,1.84,0,0,0-1.78,1.81v1.78h20V21.83A1.84,1.84,0,0,0,33.67,20Z" transform="translate(0 0)" style="fill:none"/><path d="M33.66,18.5a4.46,4.46,0,0,1-3.95-2.91,7.58,7.58,0,0,1-.51-2.2,4.84,4.84,0,0,0-3-8V.74A.74.74,0,0,0,25.46,0H.75A.74.74,0,0,0,0,.73H0V32.26A.74.74,0,0,0,.74,33H25.4a.75.75,0,0,0,.75-.74V28.87h9a.75.75,0,0,0,.75-.74V25.05h.33a.75.75,0,0,0,.75-.74v-2.5A3.33,3.33,0,0,0,33.66,18.5Zm-9,13H1.5V1.5H24.65V5.41a4.87,4.87,0,0,0-4.08,4.78,4.77,4.77,0,0,0,1.19,3.16,8.89,8.89,0,0,1-.55,2.33,4.18,4.18,0,0,1-3.85,2.82H17.3A3.33,3.33,0,0,0,14,21.81v2.5a.74.74,0,0,0,.74.74h.42v3.08a.74.74,0,0,0,.75.73h8.76Zm9.77-4.14H16.63V25.05h17.8Zm1.08-3.79h-20V21.81A1.84,1.84,0,0,1,17.28,20a5.63,5.63,0,0,0,5.29-3.7,10.24,10.24,0,0,0,.71-3.14.76.76,0,0,0-.22-.57,3.33,3.33,0,0,1-1-2.38,3.41,3.41,0,1,1,6.82,0h0a3.37,3.37,0,0,1-1,2.4.77.77,0,0,0-.22.54,9.37,9.37,0,0,0,.65,3A5.92,5.92,0,0,0,33.67,20a1.84,1.84,0,0,1,1.83,1.83Z" transform="translate(0 0)"/><rect x="3.17" y="6.84" width="10" height="1.5" rx="0.5" ry="0.5"/><rect x="3.17" y="10.75" width="10" height="1.5" rx="0.5" ry="0.5"/></svg>