<svg xmlns="http://www.w3.org/2000/svg" width="145" height="25" viewBox="0 0 145 25"><path d="M54.09,20.22c-9.63-2.88-18.34-8-27.73-11.52A48.35,48.35,0,0,0,11.55,5.41a18.41,18.41,0,0,0-3,.11c2.93,1,5.93,3,7.9,4.16,5.27,3.06,10.47,6.25,16,8.79,8.52,3.91,19.37,6.6,28.57,3.42A41.6,41.6,0,0,1,54.09,20.22Z" style="fill:none"/><path d="M105.93,6.6c-5.67,2.61-11,5.89-16.37,9a42.2,42.2,0,0,1-7.23,3.8,34.18,34.18,0,0,0,3.44-.24,59.34,59.34,0,0,0,16.44-4.85c9.16-3.95,18-9,27.78-11.21a25.86,25.86,0,0,1,3.14-.5C124.29.1,113.94,2.92,105.93,6.6Z" style="fill:none"/><path d="M142.11,5.39a9,9,0,0,0-4.91-2.64c-8.28-4.57-19.16-2.7-27.62.36a102.49,102.49,0,0,0-16.5,8.25c-4.8,2.79-10.15,7-16,6.76a5.29,5.29,0,0,1-2.69-5.37,4,4,0,0,1,4-3.18c.79,0,.24-1-.28-1.05h0A4.85,4.85,0,0,0,72.69,14c.35,3.22,3.13,5.63,6,6.59,3.84,1.26,8.35.62,12.22-.17a64.91,64.91,0,0,0,11.62-3.7c8.05-3.3,15.71-7.61,24-10.26,3.8-1.21,9.64-3.39,13.24-.82a7.6,7.6,0,0,1,2.81,8.1,13.53,13.53,0,0,1-8.2,8.69c-2.4.88-6.9.94-7.57-2.31a3,3,0,0,1,1.38-3.28c1.05-.54,2.51-.33,2.35,1.15-.1.87,1.82,1.89,2,.85.49-3-2.72-5-5.44-3.94-3.68,1.47-2.68,6.37-.14,8.38,6.67,5.28,16.81-2.26,17.89-9.5A9.86,9.86,0,0,0,142.11,5.39Zm-39.42,8.94a59.77,59.77,0,0,1-16.52,4.85,34.18,34.18,0,0,1-3.45.24A42.16,42.16,0,0,0,90,15.62c5.42-3.13,10.76-6.41,16.45-9,8-3.68,18.45-6.5,27.34-4a25.86,25.86,0,0,0-3.16.5C120.75,5.28,111.9,10.38,102.69,14.33Z" style="fill:#9fbc0f"/><path d="M57,.18C53,1,50.14,5.59,53.52,8.84c2.27,2.18,7,1.49,6.4-2.26-.14-.83-2.12-1.52-2-.38.29,2.53-3.58,2.67-3.8,0-.21-2.46,2.22-4,4.41-4.24,4.35-.51,8.84,2.78,10.73,6.51A7.9,7.9,0,0,1,68.63,17c-3,3.85-7.52,3.14-11.77,2.1C48.42,17,40.7,13,32.78,9.52c-7.39-3.2-15.67-6.37-23.9-5.85C5.09,3.91.81,5.74.08,9.85-.51,13.16,2.39,16.58,5.86,16c.64-.1,0-1-.42-1C1.1,15.21,1,10.24,3.32,7.88A7,7,0,0,1,4.5,6.94c5.85-.18,11.16,4,16,6.85a104,104,0,0,0,16.13,8c8.53,3.12,19.92,5.19,28.1.06a8.11,8.11,0,0,0,2.92-1,9.33,9.33,0,0,0,4.66-7.3C72.85,6.3,64.24-1.29,57,.18ZM32.66,18.48c-5.57-2.54-10.8-5.74-16.09-8.8-2-1.14-5-3.2-7.93-4.16a18.44,18.44,0,0,1,3-.11A48.66,48.66,0,0,1,26.48,8.7c9.44,3.48,18.19,8.64,27.87,11.52a42,42,0,0,0,7,1.67C52.13,25.07,41.23,22.38,32.66,18.48Z" style="fill:#9fbc0f"/></svg>