<svg xmlns="http://www.w3.org/2000/svg" width="36" height="24" viewBox="0 0 36 24"><path d="M0,3A3,3,0,0,1,3,0H33a3,3,0,0,1,3,3V21a3,3,0,0,1-3,3H3a3,3,0,0,1-3-3Z" fill="#fff"/><path d="M21.48,12a9.25,9.25,0,0,0-3.46-7h-.26l0,0A9,9,0,0,0,14.52,12,9.2,9.2,0,0,0,18,19.09h.26l0,0A8.89,8.89,0,0,0,21.48,12Z" fill="#ff5f00"/><path d="M14.52,12a9,9,0,0,1,3.27-7.11l0,0A8.8,8.8,0,0,0,3.52,12.08a9.1,9.1,0,0,0,9.05,9A8.65,8.65,0,0,0,18,19.13l0,0A9.2,9.2,0,0,1,14.52,12Z" fill="#eb001b"/><path d="M23.43,2.92a8.65,8.65,0,0,0-5.45,2l0,0A9.25,9.25,0,0,1,21.48,12a8.89,8.89,0,0,1-3.27,7.11l0,0a8.8,8.8,0,0,0,14.24-7.17A9.11,9.11,0,0,0,23.43,2.92Z" fill="#f79e1b"/></svg>