<svg xmlns="http://www.w3.org/2000/svg" width="36" height="24" viewBox="0 0 36 24"><path d="M0,3A3,3,0,0,1,3,0H33a3,3,0,0,1,3,3V21a3,3,0,0,1-3,3H3a3,3,0,0,1-3-3Z" fill="#fff"/><path d="M31,7.53H29.1a1.25,1.25,0,0,0-1.28.74l-3.59,8.2h2.54s.44-1.09.53-1.36h3.11c.09.31.31,1.32.31,1.32H33Zm-3,5.74c.22-.52,1-2.5,1-2.5a5.68,5.68,0,0,0,.31-.83l.18.79s.48,2.15.57,2.59H28Z" fill="#3362ab"/><path d="M24.4,13.53c0,1.85-1.66,3.08-4.25,3.08a7,7,0,0,1-2.72-.49l.35-2,.31.13a4.83,4.83,0,0,0,2.28.48c.7,0,1.45-.26,1.45-.88,0-.39-.31-.66-1.28-1.09s-2.15-1.14-2.15-2.42c0-1.75,1.72-2.94,4.13-2.94a5.55,5.55,0,0,1,2.19.4l-.35,1.93-.18-.18a4.74,4.74,0,0,0-1.84-.35c-.92.05-1.36.44-1.36.79s.53.7,1.36,1.1C23.75,11.74,24.4,12.48,24.4,13.53Z" fill="#3362ab"/><path d="M3,7.61l0-.17H6.82a.93.93,0,0,1,1,.74l.83,4A7.76,7.76,0,0,0,3,7.61Z" fill="#f9b50b"/><path d="M14,7.53l-3.82,8.9H7.61L5.41,9a9.64,9.64,0,0,1,3.38,3.69l.26.92,2.37-6.1H14Z" fill="#3362ab"/><path d="M15,7.48h2.41l-1.54,9H13.48Z" fill="#3362ab"/></svg>