<svg xmlns="http://www.w3.org/2000/svg" viewBox="0 0 82 70"><path d="M81.88,1.51A1.52,1.52,0,0,0,80.36,0h0L1.51.17A1.5,1.5,0,0,0,0,1.68L.12,58.32a1.52,1.52,0,0,0,1.52,1.51h0l21.74,0-1.16,1.62a1.52,1.52,0,0,0,0,1.71,1.49,1.49,0,0,0,1.58.64l6.77-1.44,1.19,6.33A1.52,1.52,0,0,0,33,69.87h.23a1.52,1.52,0,0,0,1.33-.79l5.06-9.34h3.73l4.95,9.45a1.51,1.51,0,0,0,1.34.81l.21,0a1.51,1.51,0,0,0,1.27-1.19l1.28-6.31L59.14,64a1.5,1.5,0,0,0,1.58-2.32l-1.36-2,21.13,0A1.52,1.52,0,0,0,82,58.15ZM37.55,57.19a1.54,1.54,0,0,0-.39.72l-3.24,6-.68-3.66a1.54,1.54,0,0,0-.65-1A1.58,1.58,0,0,0,31.43,59l-4.49,1,.39-.55a1.54,1.54,0,0,0,.49-.69l5.26-7.4a12.89,12.89,0,0,0,6,2.93Zm3.7-.46.26-.48.25.48Zm.37-5.22h-.08a10,10,0,0,1-9.95-10.06,10,10,0,0,1,10-9.93h.07a10,10,0,0,1-.07,20Zm9.93,7.68a1.5,1.5,0,0,0-1.82,1.17L49,64l-5.07-9.68A13,13,0,0,0,50,51.48l6,8.73Zm5.73-2.5-5.16-7.47a12.92,12.92,0,0,0,2.54-7.6A13.06,13.06,0,0,0,41.71,28.5h-.09A13.06,13.06,0,0,0,28.56,41.43,12.9,12.9,0,0,0,31,49.07l-5.47,7.69-22.38.05L3,3.18,78.85,3,79,56.65Z"/><path d="M55.23,12.11,26.68,11.9h0a1.5,1.5,0,0,0-1.5,1.49,1.49,1.49,0,0,0,1.48,1.5l28.56.21h0a1.5,1.5,0,0,0,0-3Z"/><path d="M55.18,18.85l-28.55-.2h0a1.5,1.5,0,1,0,0,3l28.55.2h0a1.5,1.5,0,1,0,0-3Z"/></svg>