<svg xmlns="http://www.w3.org/2000/svg" viewBox="0 0 87 56"><path d="M86.57,28a1.53,1.53,0,0,0-1-.43H78.1V15.27a1.46,1.46,0,0,0-.43-1,1.48,1.48,0,0,0-1-.43H53.39V1.48a1.49,1.49,0,0,0-.44-1A1.51,1.51,0,0,0,51.9,0H1.48a1.53,1.53,0,0,0-1,.43A1.53,1.53,0,0,0,0,1.48V47.79a1.53,1.53,0,0,0,.43,1.05,1.53,1.53,0,0,0,1.05.43H12.77a7.57,7.57,0,0,0,15,0H61a7.51,7.51,0,0,0,2.47,4.8A7.58,7.58,0,0,0,76,49.27h9.48A1.47,1.47,0,0,0,87,47.79V29.07A1.53,1.53,0,0,0,86.57,28Zm-63,23.67a4.56,4.56,0,0,1-3.21,1.36h0A4.58,4.58,0,0,1,16,50.23a4.57,4.57,0,0,1,1-5,4.6,4.6,0,0,1,6.53,6.47Zm26.9-5.38H27.54a7.56,7.56,0,0,0-7.23-5.39h0a7.59,7.59,0,0,0-7.22,5.39H3V3H50.42Zm21.34,5.4a4.64,4.64,0,0,1-5.82.57,4.53,4.53,0,0,1-1.69-2.06A4.66,4.66,0,0,1,64,47.56a4.63,4.63,0,0,1,6.29-3.34,4.59,4.59,0,0,1,2.84,4.25A4.58,4.58,0,0,1,71.76,51.71ZM84,46.31H75.76A7.52,7.52,0,0,0,73,42.46a7.58,7.58,0,0,0-9,0,7.52,7.52,0,0,0-2.73,3.85H53.39V16.75H75.14V29.07a1.44,1.44,0,0,0,.43,1,1.49,1.49,0,0,0,1.05.44H84Z"/><path d="M9.39,17.74H39.55L34.6,22.66a1.61,1.61,0,0,0-.34.48,1.44,1.44,0,0,0-.13.58,1.46,1.46,0,0,0,.11.58,1.43,1.43,0,0,0,.32.49,1.67,1.67,0,0,0,.5.33,1.42,1.42,0,0,0,.58.1,1.43,1.43,0,0,0,.58-.12,1.65,1.65,0,0,0,.48-.35l6.65-6.63a1.46,1.46,0,0,0,0-2.09L36.7,9.4A1.51,1.51,0,0,0,35.64,9a1.94,1.94,0,0,0-.58.12,1.51,1.51,0,0,0-.8.82,1.56,1.56,0,0,0-.11.57,1.87,1.87,0,0,0,.12.57,1.58,1.58,0,0,0,.33.48l3.26,3.25H9.39a1.47,1.47,0,0,0-1.48,1.48,1.49,1.49,0,0,0,1.48,1.48Z"/><path d="M12.71,39a1.5,1.5,0,0,0,1.06.44A1.53,1.53,0,0,0,14.82,39a1.5,1.5,0,0,0,0-2.11l-3.42-3.4H40.08A1.47,1.47,0,0,0,41.52,32a1.46,1.46,0,0,0-.43-1A1.48,1.48,0,0,0,40,30.55H10l4.84-4.82a1.55,1.55,0,0,0,.32-.48,1.6,1.6,0,0,0,.11-.57,1.39,1.39,0,0,0-.12-.57,1.58,1.58,0,0,0-.33-.48,1.42,1.42,0,0,0-.48-.31,1.38,1.38,0,0,0-.57-.11,1.6,1.6,0,0,0-.57.11,1.58,1.58,0,0,0-.48.33L6.06,30.28a1.48,1.48,0,0,0,0,2.09Z"/></svg>