<svg xmlns="http://www.w3.org/2000/svg" viewBox="0 0 75 90"><path d="M61.5,11.87H1.5A1.49,1.49,0,0,0,0,13.35V88.52A1.49,1.49,0,0,0,1.5,90h60A1.49,1.49,0,0,0,63,88.52V13.35A1.49,1.49,0,0,0,61.5,11.87ZM60,87H3V14.84H60Z"/><path d="M11.5,67.25h38a1.48,1.48,0,1,0,0-3H36V52.69c2.22-1.59,8.63-6.61,8.63-11.6,0-4.63-2.86-8.93-7.45-11.24a1.52,1.52,0,0,0-1.46.06A1.47,1.47,0,0,0,35,31.17v7.4H26V31.5a1.5,1.5,0,0,0-2.25-1.29A12.64,12.64,0,0,0,17,41.09c0,4.8,5.94,9.78,8,11.38V64.29H11.5a1.48,1.48,0,1,0,0,3ZM20,41.09a9.16,9.16,0,0,1,3-6.65v5.62a1.49,1.49,0,0,0,1.5,1.48h12A1.49,1.49,0,0,0,38,40.06V33.9a9.37,9.37,0,0,1,3.63,7.19c0,3.51-5.75,8.12-8,9.6A1.5,1.5,0,0,0,33,51.92V64.29H28V51.73a1.47,1.47,0,0,0-.62-1.2C25.33,49.05,20,44.46,20,41.09Z"/><path d="M73.5,0h-60A1.49,1.49,0,0,0,12,1.48V8.41a1.5,1.5,0,0,0,3,0V3H72V75.16H66.5a1.49,1.49,0,1,0,0,3h7A1.49,1.49,0,0,0,75,76.65V1.48A1.49,1.49,0,0,0,73.5,0Z"/></svg>