<svg xmlns="http://www.w3.org/2000/svg" viewBox="0 0 519 362.07"><path d="M41.73,322.56a204.79,204.79,0,0,0,3.72,32h4.22c10.56-13.14,10.07-26.45,10.07-26.45Z" style="fill:none"/><path d="M80.69,176.94c2.92-4.54,7.62-10.39,7.62-22.4s-16.39-31.8-22.88-44S55,84.57,52.6,75.65s-6.5-39.77-6.5-39.77c-2.27,1-19,6.5-19,6.5,2,23.53,7.47,41.21,10.9,47.88s12.35,18.66,19.32,30.51,9.74,21.28,10.06,28.09a35,35,0,0,1-3.09,17.86c-2.92,7-8.61,13.79-17.2,26.78S30.52,221.59,22.4,248.69a154.94,154.94,0,0,0-6.32,50.65c4.7,6.49,18.33,12.34,18.33,12.34-.15-24.51,2.6-46.75,6.34-59.42A180.32,180.32,0,0,1,56.49,215.1C62.83,204.06,77.76,181.49,80.69,176.94Z" style="fill:none"/><path d="M143.83,345.61l3.09-1-4.07-11.86-11.19,2.6A65.29,65.29,0,0,0,143.83,345.61Z" style="fill:none"/><path d="M73.54,202.27C71.27,205.51,63,221.42,63,221.42l73.38,16.73c.32-8.61,6.82-26.14,8.44-29.72a67.72,67.72,0,0,0,3.09-10.54L83.28,187.66C80.36,190.9,75.82,199,73.54,202.27Zm35.72-1.63a5.52,5.52,0,1,1-5.52,5.52,5.52,5.52,0,0,1,5.52-5.52Z" style="fill:none"/><path d="M44.15,275.48c-2.27,20.46-2.42,39.12-2.42,39.12,4.22,1.62,35.86,12.82,55.67,15.58s43.5-4.37,43.5-4.37c-5-16.73-7.46-43.35-7.46-43.35Zm46.76,35.39a5.52,5.52,0,1,1,5.52-5.52h0A5.52,5.52,0,0,1,90.91,310.87Z" style="fill:none"/><path d="M139.77,118.18,88.48,134.74c5.52,10.38,7.52,14.61,7.3,25-.16,7.64-8,21.11-8,21.11l61.84,9.26a195.93,195.93,0,0,0,1.62-24.2c.33-11.68-4.22-25.48-6.17-31S139.77,118.18,139.77,118.18Zm-15.9,42.37a5.52,5.52,0,1,1,5.51-5.53h0A5.53,5.53,0,0,1,123.87,160.55Z" style="fill:none"/><path d="M21.27,340.09l3.25.16a51.47,51.47,0,0,0,8.76-20.78S20.13,313,17.21,310.38Z" style="fill:none"/><path d="M60.39,77.44c10.06,33.11,23.37,50.65,23.37,50.65l55.69-17.38C136.68,95.94,138,70.78,138,70.78Zm45,24.67a5.52,5.52,0,1,1,5.52-5.52h0a5.52,5.52,0,0,1-5.52,5.52h0Z" style="fill:none"/><path d="M45.45,268.82l88,7.31,1.3-30.52-76-17.2A240.88,240.88,0,0,0,49.67,251,159.63,159.63,0,0,0,45.45,268.82Zm52.92-20.61a5.52,5.52,0,1,1-5.52,5.52,5.52,5.52,0,0,1,5.52-5.52Z" style="fill:none"/><path d="M77.92,13.48C27.6,27.92,17.38,37.34,17.38,37.34,28.25,34.91,46,28.91,49.84,26.79S77.92,13.48,77.92,13.48Z" style="fill:none"/><path d="M111.36,13c-7.47.81-22.56,4.88-32,8.93S53.74,34.09,53.74,34.09c.65,10.39,5.19,35.56,5.19,35.56C84.58,67.53,139,63,139,63c0-14.76,10.55-49.82,10.55-49.82C128.41,10.56,118.83,12.18,111.36,13Zm-9.74,30.84a5.52,5.52,0,1,1,5.52-5.52h0a5.53,5.53,0,0,1-5.52,5.51Z" style="fill:none"/><path d="M426.19,205.55c-.89-8.28-2.56-23.5-3.69-33.88-2.11-19.4-2.43-21.68-3-20.78-.16.28-2.11,17.25-4.3,37.74s-4.66,43.14-5.47,50.36-1.42,13.6-1.42,14.13v.93H431v-2.23c0-1.26-.28-4.59-.6-7.43C429.8,238.91,428.78,229.94,426.19,205.55Z" style="fill:none"/><path d="M308.85,111.24a12.53,12.53,0,0,0-8-.33,11.34,11.34,0,0,0-3.29,2.32c-3.56,3.49-3.24-7-3.16,105.72l.12,99.83.9,1.66a11.16,11.16,0,0,0,5.75,4.95,14.38,14.38,0,0,0,3.81.49,10.62,10.62,0,0,0,9.61-7.22c.57-2.07.57-198.94,0-201S311,112.29,308.85,111.24Z" style="fill:none"/><path d="M255.41,111.77a20.83,20.83,0,0,0-21-11.49c-5,.57-8.47,2.39-12.32,6.45a19.86,19.86,0,0,0-5.11,9.7c-.25,1.38-.41,17.61-.41,45.25,0,47.12,0,46.06,2.39,50.93,3.13,6.13,10.63,10.56,18.09,10.6a12.17,12.17,0,0,1,3,.4c2.15.61,5.39,3.66,6.44,6l.86,2.07-.08,43.5-.13,43.55L246,320.65a10.33,10.33,0,0,1-18.41-.61c-.93-2-1-2.36-1-13.56V295H216.44l.16,12.66c.16,12.66.16,12.7,1.26,15.5A20.06,20.06,0,0,0,237,336a19.81,19.81,0,0,0,14.19-5.73,20,20,0,0,0,5.88-10.55c.28-1.46.36-18,.32-46.67l-.12-44.48L255.53,225c-3.81-7.63-9.53-11.28-19.14-12.21-3.24-.33-5.72-1.46-7.3-3.37-2.51-3-2.43-1.34-2.43-48.13,0-33.65.16-43,.57-44.12a12.06,12.06,0,0,1,4.29-5.43c2.11-1.47,6.41-1.87,9.08-.86,2.28.9,5.68,4.43,6.29,6.58.28.93.45,5.88.45,12.42a103.55,103.55,0,0,0,.32,11,39,39,0,0,0,5.07,0l4.74-.25V129.3a127,127,0,0,0-.44-13.23A30.11,30.11,0,0,0,255.41,111.77Z" style="fill:#fff"/><path d="M301.47,100.24c-8.44,1.5-15.53,8.52-16.83,16.64-.57,3.65-.57,198.85,0,202.51a19.9,19.9,0,0,0,10.06,14.16c12.24,6.21,26.51.08,29.88-12.74.53-2.11.61-14,.61-102.92,0-99.14,0-100.56-.81-103.12C321.42,105.15,311,98.54,301.47,100.24Zm13.17,218.42a10.62,10.62,0,0,1-9.61,7.22,14.38,14.38,0,0,1-3.81-.49,11.16,11.16,0,0,1-5.75-4.95l-.9-1.66L294.45,219c-.08-112.7-.4-102.23,3.16-105.72A11.34,11.34,0,0,1,300.9,111a12.53,12.53,0,0,1,8,.33c2.19,1,5.23,4.42,5.79,6.37S315.21,316.59,314.64,318.66Z" style="fill:#fff"/><path d="M365.53,110.22c.45-.12,7.42-.24,15.53-.24h14.68v-4.42c0-4.67-.2-5.81-1-5.64-.24.08-9.32.16-20.19.2l-19.78.12V336.07l5-.12,5-.13.12-56.33.08-56.28h15.41V213.06H364.92v-4.18c0-2.27,0-25.36-.12-51.3C364.72,110.71,364.72,110.43,365.53,110.22Z" style="fill:#fff"/><path d="M441.35,251.82c-.81-7.39-2-18.23-2.63-24.15s-1.91-17.61-2.84-26-1.91-17.62-2.23-20.5-1-9.57-1.62-14.81-1.67-15.46-2.44-22.73c-1.37-12.37-4.66-43.06-4.66-43.3a46.31,46.31,0,0,0-5-.12h-5l-.25,1.1c-.12.64-.77,6.33-1.46,12.7s-2.51,23-4.05,37.13c-4.87,44.36-5.31,48.5-8.11,75.49-.89,8.48-1.78,16.8-2,18.46s-1.26,10.51-2.23,19.68c-3.12,29-6.28,57.83-6.89,63.39-.33,3-.61,5.93-.61,6.62V336h10l.48-5.2c.45-4.5,1.95-19,5.92-56.08.57-5.24,1.1-9.78,1.22-10.07s3.08-.48,12.93-.48H432.6l.2,1.29c.24,1.55.65,5.36,2.06,18.79,1.26,12,2.11,19.89,2.84,26.79.33,2.88.94,8.72,1.42,13s.9,8.69,1.06,9.83l.2,2.15h5.07a22.63,22.63,0,0,0,5-.29c0-.16-.73-6.9-1.63-14.93C447.15,305.39,443.79,274.22,441.35,251.82ZM431,254.05H408.3v-.93c0-.53.65-6.86,1.42-14.13s3.24-29.91,5.47-50.36,4.14-37.46,4.3-37.74c.57-.9.89,1.38,3,20.78,1.13,10.38,2.8,25.6,3.69,33.88,2.59,24.39,3.61,33.36,4.22,38.84.32,2.84.6,6.17.6,7.43Z" style="fill:#fff"/><path d="M513.93,100.24h-5.07V187.9c0,48.21-.12,87.66-.28,87.66a29.22,29.22,0,0,1-1.26-6c-.49-3.32-1.86-10.91-2.92-16.92s-3.73-21-5.84-33.28-7.25-41.76-11.39-65.54-7.87-45.53-8.39-48.42l-.85-5.15H467.51V336h10.54l.08-88.19c.12-87.13.12-88.11.85-83.48.41,2.56,4.3,24.92,8.6,49.72,8.84,50.64,14.47,83.07,15.61,89.68,1.74,10.19,4.9,28.17,5.31,30.12l.4,2.15H519V100.24Z" style="fill:#fff"/><circle cx="101.62" cy="38.31" r="5.52" style="fill:#494039"/><circle cx="105.36" cy="96.59" r="5.52" style="fill:#494039"/><circle cx="123.87" cy="155.03" r="5.52" style="fill:#494039"/><circle cx="109.26" cy="206.16" r="5.52" style="fill:#494039"/><circle cx="98.37" cy="253.73" r="5.52" style="fill:#494039"/><circle cx="90.91" cy="305.35" r="5.52" style="fill:#494039"/><path d="M156.49,15.58l9.09-4.22-.33-9.74C153.89.32,134.74,0,134.74,0,56.82,0,0,38.31,0,38.31l5.52,9.74,14-3.57c0,2,3.57,28.24,7.47,39.28s17.2,27.92,21.1,35.39,12.34,15.26,12.34,32.47S50,169.47,30.84,206.81,9.09,270.44,9.09,297.39a201.67,201.67,0,0,0,6.49,49.68h12l7.79-11,4.22,26,14.28-.32c13.32-17.21,13-31.17,13-31.17,40.58,10.71,56.17,5.84,56.17,5.84A41.06,41.06,0,0,0,142.19,352l14.94-1.63c-4.22-11.69-16.89-44.8-16.89-74.67s3.25-41.88,11.37-66.23,6.17-36,6.17-50-5.85-28.25-7.8-33.12-1.62-6.81-3.24-14.28-2.27-29.55-.65-48.38S156.49,15.58,156.49,15.58ZM17.38,37.34S27.6,27.92,77.92,13.48c0,0-24.18,11.19-28.08,13.31S28.25,34.91,17.38,37.34Zm7.14,302.91-3.25-.16-4.06-29.71c2.92,2.6,16.07,9.09,16.07,9.09A51.47,51.47,0,0,1,24.52,340.25Zm9.89-28.57s-13.63-5.85-18.33-12.34a154.94,154.94,0,0,1,6.32-50.65c8.12-27.1,16.08-42.2,24.68-55.19s14.28-19.8,17.2-26.78a35,35,0,0,0,3.09-17.86c-.32-6.81-3.09-16.23-10.06-28.09S41.4,96.92,38,90.26,29.06,65.91,27.12,42.38c0,0,16.71-5.52,19-6.5,0,0,4.07,30.84,6.5,39.77S59,98.37,65.45,110.55s22.88,32,22.88,44-4.7,17.86-7.62,22.4-17.86,27.12-24.2,38.16a180.32,180.32,0,0,0-15.74,37.16C37,264.93,34.26,287.17,34.41,311.68Zm105-201L83.76,128.09S70.45,110.55,60.39,77.44L138,70.78s-1.32,25.16,1.45,39.93ZM58.76,228.41l76,17.2-1.3,30.52-88-7.31A159.59,159.59,0,0,1,49.67,251,241,241,0,0,1,58.76,228.41ZM49.67,354.53H45.45a204.79,204.79,0,0,1-3.72-32l18,5.52S60.23,341.39,49.67,354.53Zm97.25-9.89-3.09,1a65.14,65.14,0,0,1-12.17-10.23l11.19-2.6Zm-6-18.83s-23.7,7.14-43.5,4.37S46,316.22,41.73,314.6c0,0,.15-18.66,2.42-39.12l89.29,7s2.44,26.6,7.46,43.33Zm3.9-117.38c-1.62,3.58-8.12,21.11-8.44,29.72L63,221.42s8.29-15.91,10.56-19.15,6.82-11.37,9.74-14.61l64.61,10.23a67.79,67.79,0,0,1-3.11,10.54Zm6.49-42.53a195.93,195.93,0,0,1-1.62,24.2l-61.84-9.26s7.79-13.47,8-21.11c.22-10.38-1.78-14.61-7.3-25l51.29-16.56s3.41,11.2,5.35,16.72,6.43,19.33,6.1,31ZM139,63s-54.38,4.55-80,6.67c0,0-4.54-25.17-5.19-35.56,0,0,16.23-8.12,25.65-12.17s24.5-8.12,32-8.93,17-2.43,38.15.17C149.51,13.16,139,48.22,139,63Z" style="fill:#494039"/><circle cx="90.91" cy="305.35" r="5.52" style="fill:none"/><circle cx="98.37" cy="253.73" r="5.52" style="fill:none"/><circle cx="105.36" cy="96.59" r="5.52" style="fill:none"/><circle cx="101.62" cy="38.31" r="5.52" style="fill:none"/><circle cx="109.26" cy="206.16" r="5.52" style="fill:none"/><circle cx="123.87" cy="155.03" r="5.52" style="fill:none"/><path d="M77.92,13.48C27.6,27.92,17.38,37.34,17.38,37.34,28.25,34.91,46,28.9,49.84,26.79S77.92,13.48,77.92,13.48Z" style="fill:#8eb10f"/><path d="M41.73,322.56a204.79,204.79,0,0,0,3.72,32h4.22c10.56-13.14,10.07-26.45,10.07-26.45Z" style="fill:#8eb10f"/><path d="M131.66,335.38a65.14,65.14,0,0,0,12.17,10.23l3.09-1-4.07-11.86Z" style="fill:#8eb10f"/><path d="M21.27,340.09l3.25.16a51.47,51.47,0,0,0,8.76-20.78S20.13,313,17.21,310.38Z" style="fill:#8eb10f"/><path d="M80.69,176.94c2.92-4.54,7.62-10.39,7.62-22.4s-16.39-31.82-22.88-44S55,84.58,52.6,75.65s-6.5-39.77-6.5-39.77c-2.27,1-19,6.5-19,6.5,2,23.53,7.48,41.23,10.9,47.88s12.33,18.67,19.32,30.51,9.74,21.28,10.06,28.09a35,35,0,0,1-3.09,17.86c-2.92,7-8.59,13.79-17.2,26.78S30.52,221.59,22.4,248.69a154.94,154.94,0,0,0-6.32,50.65c4.7,6.49,18.33,12.34,18.33,12.34-.15-24.51,2.6-46.75,6.34-59.42A180.32,180.32,0,0,1,56.49,215.1C62.83,204.06,77.76,181.49,80.69,176.94Z" style="fill:#8eb10f"/><path d="M58.93,69.65C84.58,67.53,139,63,139,63c0-14.76,10.55-49.82,10.55-49.82-21.1-2.6-30.68-1-38.15-.17s-22.56,4.87-32,8.93S53.74,34.09,53.74,34.09C54.39,44.48,58.93,69.65,58.93,69.65Zm42.69-36.86a5.52,5.52,0,1,1-5.52,5.52h0a5.52,5.52,0,0,1,5.52-5.52Z" style="fill:#8eb10f"/><path d="M60.39,77.44c10.06,33.11,23.37,50.65,23.37,50.65l55.69-17.38C136.68,95.94,138,70.78,138,70.78Zm45,24.67a5.52,5.52,0,1,1,5.52-5.52h0a5.52,5.52,0,0,1-5.52,5.52h0Z" style="fill:#8eb10f"/><path d="M145.12,134.9c-1.94-5.52-5.35-16.72-5.35-16.72L88.48,134.74c5.52,10.38,7.52,14.61,7.3,25-.16,7.64-8,21.11-8,21.11l61.84,9.26a195.93,195.93,0,0,0,1.62-24.2C151.62,154.22,147.07,140.42,145.12,134.9Zm-21.25,25.65a5.52,5.52,0,1,1,5.51-5.53h0a5.53,5.53,0,0,1-5.51,5.52Z" style="fill:#8eb10f"/><path d="M73.54,202.27C71.27,205.51,63,221.42,63,221.42l73.38,16.73c.32-8.61,6.82-26.14,8.44-29.72a67.72,67.72,0,0,0,3.09-10.54L83.28,187.66C80.36,190.9,75.82,199,73.54,202.27Zm35.72-1.63a5.52,5.52,0,1,1-5.52,5.52,5.52,5.52,0,0,1,5.52-5.52Z" style="fill:#8eb10f"/><path d="M45.45,268.82l88,7.31,1.3-30.52-76-17.2q-5.1,11.06-9.09,22.56A160.1,160.1,0,0,0,45.45,268.82Zm52.92-20.61a5.52,5.52,0,1,1-5.52,5.52,5.52,5.52,0,0,1,5.52-5.52Z" style="fill:#8eb10f"/><path d="M133.44,282.46l-89.29-7c-2.27,20.46-2.42,39.12-2.42,39.12C46,316.2,77.59,327.41,97.4,330.16s43.5-4.37,43.5-4.37C135.88,309.08,133.44,282.46,133.44,282.46ZM90.91,310.87a5.52,5.52,0,1,1,5.52-5.52h0A5.52,5.52,0,0,1,90.91,310.87Z" style="fill:#8eb10f"/></svg>