<svg xmlns="http://www.w3.org/2000/svg" xmlns:xlink="http://www.w3.org/1999/xlink" style="display:none"><symbol id="asterisk-icon"><path d="M2.82 7h1.36l-.12-2.56 2.25 1.39L7 4.67 4.61 3.5 7 2.33l-.69-1.16-2.25 1.39L4.18 0H2.82l.12 2.56L.69 1.17 0 2.33 2.39 3.5 0 4.67l.69 1.16 2.25-1.39z"/></symbol><symbol id="scroll-down-icon"><path d="M20 0A20.2 20.2 0 000 20.35v21.3A20.2 20.2 0 0020 62a20.2 20.2 0 0020-20.35v-21.3A20.2 20.2 0 0020 0zm17 41.65A17.2 17.2 0 0120 59 17.2 17.2 0 013 41.65v-21.3A17.2 17.2 0 0120 3a17.2 17.2 0 0117 17.35z" fill="#242723"/><path d="M20 29.83a1.5 1.5 0 01-1.5-1.5V13.92a1.5 1.5 0 013 0v14.41a1.5 1.5 0 01-1.5 1.5z" fill="#242723"/></symbol></svg>