<svg xmlns="http://www.w3.org/2000/svg" viewBox="0 0 28 33"><path d="M26.2,23.56H16.63l9.63-7.38a1.76,1.76,0,0,0,.46-.52A1.72,1.72,0,0,0,27,15a1.85,1.85,0,0,0-.05-.7,1.69,1.69,0,0,0-.31-.63L23,9A1.8,1.8,0,0,0,20.5,8.7l-5.76,4.41,3.49-8.38a1.79,1.79,0,0,0-1-2.35L11.86.14a1.81,1.81,0,0,0-2.36,1L.14,23.6a1.77,1.77,0,0,0-.05,1.24,1.77,1.77,0,0,0-.09.52V31.2A1.81,1.81,0,0,0,1.8,33H26.2A1.81,1.81,0,0,0,28,31.2V25.36A1.81,1.81,0,0,0,26.2,23.56Zm-14.64,0-3-3.9,2.57-2,4,5.2-.88.67Zm-5.9,0L4.85,22.5l2.57-2,2.33,3ZM2.28,22.2l.39.16L2,22.88Zm1.8-4.32L7,19.08,4,21.35l-1.16-.48Zm1.79-4.31,5.37,2.22-3,2.28L4.63,16.55Zm1.8-4.32,6.07,2.52-1.24,3L6.43,12.24Zm1.8-4.31,6.07,2.51-1.25,3L8.22,7.92l1.25-3ZM18.56,12l4,5.2-2.57,2L16,14Zm.29,8.05-2.57,2-4-5.21,2.58-2ZM3.7,23.38l.15.18H3.46ZM21.38,9.84a.37.37,0,0,1,.27-.07.35.35,0,0,1,.24.14l3.56,4.63a.34.34,0,0,1,.06.12.38.38,0,0,1,0,.15.65.65,0,0,1,0,.13.47.47,0,0,1-.1.1L23.7,16.33l-4-5.21ZM11.31,1.47l5.4,2.24a.36.36,0,0,1,.19.47l-.81,2L10,3.61l.81-1.95a.39.39,0,0,1,.2-.2.45.45,0,0,1,.28,0ZM26.56,31.2a.36.36,0,0,1-.11.26.35.35,0,0,1-.25.1H1.8a.35.35,0,0,1-.25-.1.36.36,0,0,1-.11-.26V25.36A.36.36,0,0,1,1.8,25H26.2a.36.36,0,0,1,.36.36Z"/></svg>