<svg xmlns="http://www.w3.org/2000/svg" viewBox="0 0 35 41"><path d="M32.75,29.28h-12l12-9.18a2.19,2.19,0,0,0,.57-.64,2.1,2.1,0,0,0,.28-.83A2.2,2.2,0,0,0,33.24,17l-4.45-5.75a2.27,2.27,0,0,0-3.16-.42l-7.2,5.49L22.79,5.88A2.23,2.23,0,0,0,21.58,3L14.82.17a2.27,2.27,0,0,0-2.94,1.2L.17,29.32a2.21,2.21,0,0,0-.06,1.54,2,2,0,0,0-.11.65v7.26A2.24,2.24,0,0,0,2.25,41h30.5A2.24,2.24,0,0,0,35,38.77V31.51A2.24,2.24,0,0,0,32.75,29.28Zm-6-17.06a.42.42,0,0,1,.33-.08.44.44,0,0,1,.3.17l4.45,5.75a.48.48,0,0,1,.08.16.5.5,0,0,1,0,.17.49.49,0,0,1-.06.17.69.69,0,0,1-.11.13l-2.1,1.6-5-6.47ZM23.2,14.91l5,6.46L25,23.82l-5-6.47Zm-4.64,3.53,5,6.47-3.21,2.45-5-6.47ZM6.06,28l3.21-2.45,2.91,3.77H7.08Zm4.64-3.54L13.91,22l5,6.46-1.1.84H14.45ZM13.54,2.06a.45.45,0,0,1,.25-.24.4.4,0,0,1,.34,0h0l6.76,2.79a.44.44,0,0,1,.24.58l-1,2.42L12.53,4.48Zm-1.7,4.07,7.58,3.13L17.87,13,10.28,9.85ZM9.59,11.5l7.59,3.12-1.56,3.72L8,15.21ZM7.34,16.86l6.71,2.76-3.71,2.83L5.79,20.57ZM5.1,22.22,8.69,23.7,5,26.52l-1.44-.59Zm-.29,7.06H4.33l.3-.23Zm-2-1.7.49.2-.84.64ZM33.06,39.09a.39.39,0,0,1-.31.12H2.25a.43.43,0,0,1-.32-.12.48.48,0,0,1-.13-.32V31.51a.45.45,0,0,1,.45-.45h30.5a.45.45,0,0,1,.45.45v7.26A.45.45,0,0,1,33.06,39.09Z"/><path d="M6.25,32.7a2.5,2.5,0,1,0,2.5,2.5A2.5,2.5,0,0,0,6.25,32.7Zm0,3.57A1.07,1.07,0,1,1,7.32,35.2,1.07,1.07,0,0,1,6.25,36.27Z"/><path d="M30,32c-.69,0-1.25.38-1.25.85v4.7c0,.47.56.86,1.25.86s1.25-.39,1.25-.86v-4.7C31.25,32.38,30.69,32,30,32Z"/></svg>