<svg xmlns="http://www.w3.org/2000/svg" viewBox="0 0 21 19"><path d="M13.25,5a100,100,0,0,1,0,12.84.33.33,0,0,0,0,.24h0a1.54,1.54,0,0,0,.48.47,2.81,2.81,0,0,0,1.49.39,2.72,2.72,0,0,0,1.49-.39,1.41,1.41,0,0,0,.46-.45.37.37,0,0,0,.07-.25A98.52,98.52,0,0,1,17.29,5V4.9h-4Z"/><polygon points="17.29 4.9 17.29 4.9 17.3 4.9 17.29 4.9"/><path d="M20.35,0h0A1.66,1.66,0,0,0,18.8,1.16c-.71.78-1.83-.9-2.2-.9-1-.08-4.07,0-4.89.71-4,2.9-3,4.34-3,4.4a.27.27,0,0,0,.11.1.34.34,0,0,0,.14,0,.32.32,0,0,0,.14,0,.2.2,0,0,0,.12-.08c2.69-2.48,4.48-1.31,4.48-1.3a.35.35,0,0,0,.2,0c1,0,1.84,0,2.86,0a.42.42,0,0,0,.15,0A.43.43,0,0,0,17,4.06a1.43,1.43,0,0,1,1.81-.43,1.72,1.72,0,0,0,.53.72,1.62,1.62,0,0,0,1,.34A1.54,1.54,0,0,0,21,4.56V.13A1.71,1.71,0,0,0,20.35,0Z"/><path d="M5.32,0a.47.47,0,0,0-.16,0A.28.28,0,0,0,5,0,.41.41,0,0,0,4.92.1a.26.26,0,0,0-.07.11.21.21,0,0,0,0,.13V3.78H2.47V.4a.33.33,0,0,0,0-.17A.21.21,0,0,0,2.35.12.39.39,0,0,0,2.24.06a.29.29,0,0,0-.13,0A.2.2,0,0,0,2,.09,3.75,3.75,0,0,0,.53,1.49,4,4,0,0,0,0,3.3,4.07,4.07,0,0,0,.38,5.15a3.64,3.64,0,0,0,.93,1.23V16.53A2.45,2.45,0,0,0,2,18.27a2.3,2.3,0,0,0,3.36,0,2.49,2.49,0,0,0,.7-1.74h0V6.38A4,4,0,0,0,7,5.15a3.93,3.93,0,0,0,.37-1.68,4,4,0,0,0-.55-2A3.77,3.77,0,0,0,5.32,0ZM4.65,17.51a1.47,1.47,0,0,1-.44.31,1.37,1.37,0,0,1-.52.1,1.29,1.29,0,0,1-1-.41,1.4,1.4,0,0,1-.4-1,1.43,1.43,0,0,1,.4-1,1.33,1.33,0,0,1,1-.41,1.36,1.36,0,0,1,1,.41,1.47,1.47,0,0,1,.39,1A1.42,1.42,0,0,1,4.65,17.51Z"/></svg>