<svg xmlns="http://www.w3.org/2000/svg" viewBox="0 0 35 35"><path d="M23.71,10.61a.68.68,0,1,0,.68.68A.67.67,0,0,0,23.71,10.61Z"/><path d="M11.29,23a.68.68,0,1,0,.68.68A.67.67,0,0,0,11.29,23Z"/><path d="M34.15,4.21a.66.66,0,0,0-.64.18L30.68,7.25H29.32L27.82,5.7V4.32l2.8-2.84a.66.66,0,0,0,.17-.63.66.66,0,0,0-.44-.49,6.83,6.83,0,0,0-7.74,2.49,6.77,6.77,0,0,0-1.05,5.76l-5,5L8.13,5.23V3.58A.66.66,0,0,0,7.8,3L3,.1a.7.7,0,0,0-.84.1L.2,2.13A.7.7,0,0,0,.1,3L3,7.8a.66.66,0,0,0,.58.33H5.23l8.39,8.41-5,5a6.74,6.74,0,0,0-5.76,1.06A6.82,6.82,0,0,0,.36,30.35a.66.66,0,0,0,.49.44.66.66,0,0,0,.64-.18l2.83-2.86H5.69l1.56,1.56v1.37L4.39,33.51a.69.69,0,0,0,.26,1.13,6.82,6.82,0,0,0,7.73-2.49,6.74,6.74,0,0,0,1.06-5.76l4-4,.92,1-.42.42a.68.68,0,0,0,0,1,.7.7,0,0,0,1,0l.38-.39L28,33.78l0,0A4.1,4.1,0,0,0,33.8,28l0,0-9.42-8.64.38-.38a.7.7,0,0,0,0-1,.68.68,0,0,0-1,0l-.42.42-1-.92,4.05-4a7,7,0,0,0,1.77.23A6.84,6.84,0,0,0,35,6.84a6.75,6.75,0,0,0-.36-2.19A.66.66,0,0,0,34.15,4.21ZM6,7a.67.67,0,0,0-.48-.2H4l-2.42-4L2.72,1.54,6.77,4V5.52A.67.67,0,0,0,7,6l8.59,8.61-1,1ZM23.39,20.3,32.84,29A2.74,2.74,0,0,1,29,32.84l-8.68-9.43Zm-1-.92-3,3-.92-1,2.94-2.94Zm5.78-7.08A5.42,5.42,0,0,1,26.42,12a.69.69,0,0,0-.7.16L12.18,25.72a.69.69,0,0,0-.16.7,5.47,5.47,0,0,1-5.18,7.21l-.6,0,2.17-2.15a.7.7,0,0,0,.2-.49V29a.7.7,0,0,0-.2-.49L6.46,26.59a.7.7,0,0,0-.49-.2H4a.7.7,0,0,0-.49.2L1.4,28.76q0-.3,0-.6A5.47,5.47,0,0,1,8.58,23a.69.69,0,0,0,.7-.16L22.82,9.28a.69.69,0,0,0,.16-.7,5.47,5.47,0,0,1,5.18-7.21c.21,0,.41,0,.62,0L26.65,3.56a.71.71,0,0,0-.19.48V6a.66.66,0,0,0,.19.48l1.89,2a.64.64,0,0,0,.49.21H31a.7.7,0,0,0,.49-.2L33.6,6.24q0,.3,0,.6A5.47,5.47,0,0,1,28.16,12.3Z"/><path d="M21.29,12.74l-8.55,8.55a.69.69,0,0,0,1,1l8.55-8.55a.69.69,0,0,0-1-1Z"/><path d="M29.93,30.9a.68.68,0,0,0,1,0,.69.69,0,0,0,0-1l-6.16-6.14a.69.69,0,1,0-1,1Z"/></svg>