<svg xmlns="http://www.w3.org/2000/svg" viewBox="0 0 36 26"><rect x="3.27" y="7.31" width="5.73" height="1.62"/><rect x="2.86" y="12.19" width="5.32" height="1.63"/><rect x="3.27" y="17.06" width="5.73" height="1.63"/><path d="M22.91,0A13,13,0,1,0,36,13,13.06,13.06,0,0,0,22.91,0Zm0,24.37a11.37,11.37,0,1,1,0-22.74h0a11.37,11.37,0,1,1,0,22.74Z"/><path d="M13.76,8.62a.91.91,0,0,0,.24.2.84.84,0,0,0,.62.09.87.87,0,0,0,.5-.38.82.82,0,0,0,.1-.3.69.69,0,0,0,0-.32.86.86,0,0,0-.14-.29.91.91,0,0,0-.24-.2.8.8,0,0,0-1.12.3.76.76,0,0,0-.1.3.81.81,0,0,0,0,.31A1,1,0,0,0,13.76,8.62Z"/><path d="M27.17,5.05a.7.7,0,0,0,.24.21.83.83,0,0,0,.62.08A.84.84,0,0,0,28.52,5a.8.8,0,0,0-.3-1.11.77.77,0,0,0-.61-.08.8.8,0,0,0-.5.38.77.77,0,0,0-.11.3,1.08,1.08,0,0,0,0,.31A.73.73,0,0,0,27.17,5.05Z"/><rect y="12.19" width="1.64" height="1.63"/><path d="M13.92,13a.82.82,0,0,0-.24-.57.86.86,0,0,0-.58-.24h0a.82.82,0,0,0-.82.81.87.87,0,0,0,.06.32,1,1,0,0,0,.18.26.8.8,0,0,0,.27.18A.83.83,0,0,0,13.92,13Z"/><path d="M31.19,8.91a.87.87,0,0,0,.63-.09.74.74,0,0,0,.23-.2.8.8,0,0,0,.15-.29,1.13,1.13,0,0,0,0-.32.91.91,0,0,0-.11-.3A.81.81,0,0,0,31,7.42a.68.68,0,0,0-.24.2.71.71,0,0,0-.14.29.85.85,0,0,0,0,.32.85.85,0,0,0,.6.68Z"/><path d="M22.33,3.82a.78.78,0,0,0,.58.24.81.81,0,1,0-.76-.5A.68.68,0,0,0,22.33,3.82Z"/><path d="M28,20.65a.79.79,0,0,0-.62.08.61.61,0,0,0-.24.21.76.76,0,0,0-.15.28,1.13,1.13,0,0,0,0,.32.84.84,0,0,0,.11.3.81.81,0,0,0,.49.38.84.84,0,0,0,.62-.09.68.68,0,0,0,.24-.2.65.65,0,0,0,.14-.29.82.82,0,0,0,0-.31.89.89,0,0,0-.11-.31A.83.83,0,0,0,28,20.65Z"/><path d="M31.82,17.16a.82.82,0,0,0-.63-.08.8.8,0,0,0-.49.38.77.77,0,0,0-.11.3.89.89,0,0,0,0,.32.62.62,0,0,0,.14.28.7.7,0,0,0,.24.21h0a.79.79,0,0,0,.62.08.82.82,0,0,0,.2-1.49Z"/><path d="M28.39,12.42a.78.78,0,0,0-.26-.17.85.85,0,0,0-.31-.06H23.73V5.69a.87.87,0,0,0-.06-.32.85.85,0,0,0-.18-.27.82.82,0,0,0-.59-.24.79.79,0,0,0-.58.25.78.78,0,0,0-.17.26.87.87,0,0,0-.06.32V13a.86.86,0,0,0,.24.58.82.82,0,0,0,.58.23h4.91a.82.82,0,0,0,.82-.81.78.78,0,0,0-.07-.31A.8.8,0,0,0,28.39,12.42Z"/><path d="M32.72,12.18a.86.86,0,0,0-.58.24.82.82,0,0,0-.24.57.78.78,0,0,0,.06.31,1.27,1.27,0,0,0,.18.27.86.86,0,0,0,.58.24.84.84,0,0,0,.82-.82A.82.82,0,0,0,32.72,12.18Z"/><path d="M14.62,17.08a.82.82,0,0,0-.86.29.92.92,0,0,0-.14.28.88.88,0,0,0,0,.32.76.76,0,0,0,.1.3.83.83,0,0,0,1.12.3.79.79,0,0,0,.24-.21.74.74,0,0,0,.14-.28.7.7,0,0,0,0-.32.76.76,0,0,0-.1-.3A.8.8,0,0,0,14.62,17.08Z"/><path d="M18.65,20.94a.69.69,0,0,0-.24-.21.79.79,0,0,0-.62-.08.82.82,0,0,0-.5.37,1.12,1.12,0,0,0-.1.31,1.08,1.08,0,0,0,0,.31.8.8,0,0,0,.15.29.74.74,0,0,0,.23.2.84.84,0,0,0,.62.09.87.87,0,0,0,.5-.38.67.67,0,0,0,.1-.3.69.69,0,0,0,0-.32A.62.62,0,0,0,18.65,20.94Z"/><path d="M17.59,3.85a.66.66,0,0,0-.23.21.76.76,0,0,0-.15.28,1.13,1.13,0,0,0,0,.32,1,1,0,0,0,.1.3.83.83,0,0,0,.5.38.79.79,0,0,0,.62-.08.69.69,0,0,0,.24-.21.61.61,0,0,0,.14-.29.65.65,0,0,0,0-.31.63.63,0,0,0-.1-.3A.82.82,0,0,0,17.59,3.85Z"/><path d="M22.91,21.92a.84.84,0,0,0-.58.24.83.83,0,0,0-.24.58.86.86,0,0,0,.24.58.83.83,0,0,0,.58.23.85.85,0,0,0,.31-.06.78.78,0,0,0,.26-.17.8.8,0,0,0,.18-.27.87.87,0,0,0,.07-.31.83.83,0,0,0-.24-.58A.84.84,0,0,0,22.91,21.92Z"/></svg>