<svg xmlns="http://www.w3.org/2000/svg" viewBox="0 0 24 24"><path d="M13.58,4.65V1.91A1.7,1.7,0,0,0,12.06,0c-.8-.09-1.6.83-1.6,1.82V7.39A1.6,1.6,0,0,0,12,9.14a1.66,1.66,0,0,0,1.6-1.75Z"/><path d="M8.66,16a1,1,0,0,0-1,.58c-1.12,1.58-2.24,3.16-3.36,4.82a1.56,1.56,0,0,0,.32,2.24,1.53,1.53,0,0,0,2.16-.42c.8-1.08,1.6-2.24,2.41-3.4a6.75,6.75,0,0,0,1-1.58A1.61,1.61,0,0,0,8.66,16Z"/><path d="M16.47,16.69a1.56,1.56,0,0,0-1.36-.75,1.49,1.49,0,0,0-1.37.91,1.54,1.54,0,0,0,.16,1.75c1,1.49,2.09,3.07,3.21,4.56a1.46,1.46,0,0,0,2.24.5,1.59,1.59,0,0,0,.24-2.41C18.55,19.68,17.51,18.18,16.47,16.69Z"/><path d="M8.37,11.87A1.57,1.57,0,0,0,7.25,9.8c-1.36-.5-2.8-1-4.16-1.41A5.5,5.5,0,0,0,1.64,8,1.47,1.47,0,0,0,0,9.3,1.41,1.41,0,0,0,1,11c1.76.67,3.53,1.25,5.37,1.83A1.43,1.43,0,0,0,8.37,11.87Z"/><path d="M23.92,9a1.49,1.49,0,0,0-1.84-1c-1.84.58-3.77,1.25-5.61,1.91a1.55,1.55,0,0,0-.88,1.83A1.57,1.57,0,0,0,17.19,13a.4.4,0,0,0,.24-.08C19.27,12.21,21.2,11.63,23,11A1.55,1.55,0,0,0,23.92,9Z"/></svg>