<svg xmlns="http://www.w3.org/2000/svg" viewBox="0 0 24 24"><path d="M12.12,24a11.81,11.81,0,0,1-2.89-.24c-.72-.16-1-.48-.88-1.2a14.2,14.2,0,0,1,7-9.43,1.82,1.82,0,0,1,2,.16,2.49,2.49,0,0,0,3.21-1,2.45,2.45,0,0,0-.48-3.12,2.56,2.56,0,0,0-3.29-.08,1.28,1.28,0,0,0-.56.72c-.32,1.2-1.21,1.52-2.17,1.92a17.56,17.56,0,0,0-9.31,8.31c-.48.88-.8.8-1.44.24a2.79,2.79,0,0,1-1-2.32,13.47,13.47,0,0,1,5-9.51,1.11,1.11,0,0,1,1.52-.08,2.46,2.46,0,0,0,3.53-1.2,2.49,2.49,0,0,0-1.28-3.28A2.41,2.41,0,0,0,7.63,5.61a1.57,1.57,0,0,1-1,1.2,12.44,12.44,0,0,0-5.7,4.64c-.16.24-.24.56-.56.48S0,11.53,0,11.21A12,12,0,0,1,15.09.41,11.8,11.8,0,0,1,24,12.25a11.85,11.85,0,0,1-9,11.43A8.65,8.65,0,0,1,12.12,24Z"/></svg>