<svg xmlns="http://www.w3.org/2000/svg" viewBox="0 0 24 23"><path d="M10.9,0h2.18A8.56,8.56,0,0,1,15.9.72a9,9,0,0,1-1.37.16c-4.76.57-8.88,4.5-9.12,9A6.82,6.82,0,0,0,8,16.07a6.08,6.08,0,0,0,9.85-5.46,5.11,5.11,0,0,0-2.91-4.26,10.31,10.31,0,0,0-1.45-.56c-.64-.25-.64-.25-.56-.89A4.57,4.57,0,0,1,16.23,1a.68.68,0,0,1,.56,0,13.43,13.43,0,0,1,1.78.89,11.23,11.23,0,0,1,4.92,12.94,11.76,11.76,0,0,1-13.88,8,11.38,11.38,0,0,1-9.13-8.2c-.24-.8-.32-1.68-.48-2.49V10.93a1.36,1.36,0,0,1,.08-.56A11.57,11.57,0,0,1,8,.64,8.18,8.18,0,0,1,10.9,0Z"/></svg>