<svg xmlns="http://www.w3.org/2000/svg" viewBox="0 0 50 50"><path d="M48.69,38.57,38.57,31.82a3,3,0,0,0-4,.65l-2.95,3.79a1.25,1.25,0,0,1-1.61.34l-.56-.31c-1.86-1-4.17-2.28-8.83-6.94s-5.93-7-6.94-8.83L13.41,20a1.27,1.27,0,0,1,.33-1.62l3.79-2.95a3,3,0,0,0,.65-4L11.43,1.31a3,3,0,0,0-4-.89L3.23,3A6,6,0,0,0,.51,6.5C-1,12.05.13,21.63,14.25,35.75,25.48,47,33.84,50,39.59,50a14.78,14.78,0,0,0,3.91-.51A6,6,0,0,0,47,46.77l2.55-4.23A3,3,0,0,0,48.69,38.57Zm-.55,3.11L45.6,45.91a4.29,4.29,0,0,1-2.54,2c-5.12,1.41-14.08.25-27.63-13.31S.71,12.06,2.12,6.94a4.31,4.31,0,0,1,2-2.55L8.32,1.85A1.28,1.28,0,0,1,10,2.24l3.67,5.51,3.08,4.61a1.3,1.3,0,0,1-.28,1.72L12.72,17A2.93,2.93,0,0,0,12,20.77l.3.54c1.06,2,2.39,4.39,7.22,9.22s7.26,6.16,9.21,7.22l.55.3A2.91,2.91,0,0,0,33,37.28l3-3.79a1.3,1.3,0,0,1,1.72-.28L47.76,40A1.28,1.28,0,0,1,48.14,41.68Z"/><path d="M28.33,8.34A14.18,14.18,0,0,1,42.5,22.5a.83.83,0,1,0,1.66,0A15.85,15.85,0,0,0,28.33,6.67a.83.83,0,0,0-.83.83A.84.84,0,0,0,28.33,8.34Z"/><path d="M28.33,13.34A9.17,9.17,0,0,1,37.5,22.5a.83.83,0,1,0,1.66,0A10.84,10.84,0,0,0,28.33,11.67a.83.83,0,0,0-.83.83A.84.84,0,0,0,28.33,13.34Z"/><path d="M28.33,18.34A4.17,4.17,0,0,1,32.5,22.5a.83.83,0,1,0,1.66,0,5.83,5.83,0,0,0-5.83-5.83.83.83,0,0,0-.83.83A.84.84,0,0,0,28.33,18.34Z"/></svg>