<svg xmlns="http://www.w3.org/2000/svg" viewBox="0 0 46 46"><path d="M37.79,35.29a.75.75,0,0,0,0,.26.58.58,0,0,0,.06.26l2.45,5.5a.54.54,0,0,0,.15.22.64.64,0,0,0,.22.14.61.61,0,0,0,.26,0,.75.75,0,0,0,.26-.05.69.69,0,0,0,.22-.16.64.64,0,0,0,.14-.22.75.75,0,0,0,0-.26,1.1,1.1,0,0,0-.06-.26L39,35.26a.66.66,0,0,0-.15-.22.74.74,0,0,0-.22-.14.63.63,0,0,0-.27,0,.7.7,0,0,0-.25,0,.6.6,0,0,0-.22.16A.64.64,0,0,0,37.79,35.29Z"/><path d="M45.94,45,39.07,29.6a.72.72,0,0,0-.25-.3.7.7,0,0,0-.37-.11H30.7a51.26,51.26,0,0,0,5-10.14,17,17,0,0,0,1-5.23A13.76,13.76,0,0,0,10.27,8.54a13.68,13.68,0,0,0-1,5.28,17,17,0,0,0,1,5.23,51.26,51.26,0,0,0,5,10.14H7.55a.7.7,0,0,0-.37.11.72.72,0,0,0-.25.3L.06,45a.65.65,0,0,0-.06.33.68.68,0,0,0,.11.32.69.69,0,0,0,.25.23A.72.72,0,0,0,.68,46H45.32a.72.72,0,0,0,.32-.08.69.69,0,0,0,.25-.23.68.68,0,0,0,.11-.32A.65.65,0,0,0,45.94,45ZM11.56,18.61a15.64,15.64,0,0,1-1-4.79,12.4,12.4,0,1,1,24.8,0,15.64,15.64,0,0,1-1,4.79,52.2,52.2,0,0,1-5.53,10.88v0a75.14,75.14,0,0,1-5.9,8,75.14,75.14,0,0,1-5.9-8v0A52.2,52.2,0,0,1,11.56,18.61Zm-9.84,26L8,30.55h8.18A75.07,75.07,0,0,0,22.49,39a.76.76,0,0,0,.23.17.71.71,0,0,0,.28.06.67.67,0,0,0,.28-.06.66.66,0,0,0,.23-.17,75.07,75.07,0,0,0,6.32-8.41H38l6.26,14.09Z"/><path d="M23,21A7.21,7.21,0,0,0,24.41,6.75,7.23,7.23,0,0,0,17,9.81,7.22,7.22,0,0,0,23,21ZM18.86,9.68A5.89,5.89,0,0,1,23,8h0a5.85,5.85,0,1,1-4.87,9.11,5.92,5.92,0,0,1-1-3.26A5.86,5.86,0,0,1,18.86,9.68Z"/></svg>