<svg xmlns="http://www.w3.org/2000/svg" viewBox="0 0 47 32"><path d="M47,.67v0a0,0,0,0,0,0,0,.41.41,0,0,0,0-.16v0h0a.51.51,0,0,0-.09-.16s0,0,0,0a.69.69,0,0,0-.13-.11h0A.6.6,0,0,0,46.54,0h0l-.19,0H.69L.5,0h0A.6.6,0,0,0,.3.12h0A.69.69,0,0,0,.16.24s0,0,0,0A.51.51,0,0,0,.05.43H0v0A.41.41,0,0,0,0,.62s0,0,0,0v30.7s0,0,0,.07,0,0,0,.06a.64.64,0,0,0,0,.07.17.17,0,0,1,0,.05l0,.07,0,0,0,.06,0,0a0,0,0,0,1,0,0h0a.81.81,0,0,0,.18.1h0a.58.58,0,0,0,.19,0H46.32a.58.58,0,0,0,.19,0h0a.52.52,0,0,0,.18-.1h0l0,0a.08.08,0,0,1,0,0l0-.06,0,0,0-.07a.08.08,0,0,0,0-.05l0-.07a.13.13,0,0,1,0-.06v-.07a0,0,0,0,1,0,0ZM16.28,14.58l6.77,5.65a.71.71,0,0,0,.9,0l6.77-5.65L44.8,30.65H2.2ZM1.39,29.49V2.14L15.23,13.7ZM31.77,13.7,45.61,2.14V29.49ZM44.43,1.35,30.35,13.11h0L23.5,18.83l-6.84-5.71h0L2.56,1.35Z"/></svg>