<svg xmlns="http://www.w3.org/2000/svg" viewBox="0 0 40 23"><path d="M39.39,3.21H30.3V2.52A.61.61,0,0,0,29.89,2L28,1.31a.63.63,0,0,0-.19,0H26.42v0a.6.6,0,0,0-.6-.6h-2v0a.6.6,0,0,0-.61-.6H3A3,3,0,0,0,0,2.93V7.25a2.93,2.93,0,0,0,2.25,2.84L.15,21.54a1.2,1.2,0,0,0,.27,1,1.24,1.24,0,0,0,1,.45H6.75a1.56,1.56,0,0,0,.11-3.12L7.93,14H10.3a.6.6,0,0,0,.51-.27.59.59,0,0,0,0-.56,5.07,5.07,0,0,1-.11-3h4.4a9.15,9.15,0,0,0,3.35-.64L22.63,7.9V9h-.69a.6.6,0,0,0-.61.6.6.6,0,0,0,.61.6h.69v9.69h0a.61.61,0,1,0,0,1.21h3.87a.61.61,0,1,0,0-1.21h0V10.18h.69a.6.6,0,0,0,.61-.6.6.6,0,0,0-.61-.6h-.69V6.33h1.34a.63.63,0,0,0,.19,0l1.94-.64a.59.59,0,0,0,.41-.57V4.41h9.09a.6.6,0,0,0,.61-.6A.6.6,0,0,0,39.39,3.21ZM9.5,12.82H8.15l.48-2.64h.88A6.11,6.11,0,0,0,9.5,12.82ZM14.22,9H8.13a.6.6,0,0,0-.6.49l-2,10.9a.6.6,0,0,0,.14.49.58.58,0,0,0,.46.22h.62a.36.36,0,0,1,0,.72H1.38a0,0,0,0,1,0,0,0,0,0,0,1,0,0l.12-.67H3.84a.61.61,0,0,0,0-1.21H1.68L3.55,9.68a.56.56,0,0,0-.13-.49A.57.57,0,0,0,3,9,1.74,1.74,0,0,1,1.21,7.25V2.93A1.74,1.74,0,0,1,3,1.2H14.22Zm8.41-7.74V6.61L18.05,8.42A7.87,7.87,0,0,1,15.43,9V1.2h7.2Zm2.58,18.63H23.84V10.18h1.37ZM25.21,9H23.84V7h0V1.84h1.37Zm3.88-4.32-1.43.47H26.42V2.48h1.24L29.09,3Z"/><path d="M12.89,7a.6.6,0,0,0,.6-.6V3.81a.61.61,0,0,0-1.21,0V6.37A.6.6,0,0,0,12.89,7Z"/><path d="M11,7a.61.61,0,0,0,.61-.6V3.81a.6.6,0,0,0-.61-.6.6.6,0,0,0-.61.6V6.37A.6.6,0,0,0,11,7Z"/><path d="M9,7a.61.61,0,0,0,.61-.6V3.81a.61.61,0,0,0-1.22,0V6.37A.61.61,0,0,0,9,7Z"/></svg>