<svg xmlns="http://www.w3.org/2000/svg" viewBox="0 0 36 40"><path d="M35.36,6.59h0A48,48,0,0,1,18.4.12a.74.74,0,0,0-.81,0A47.28,47.28,0,0,1,.8,6.56l-.16,0A.77.77,0,0,0,0,7.36V17.58A23.19,23.19,0,0,0,5,32a22.81,22.81,0,0,0,12.82,8L18,40l.17,0A22.77,22.77,0,0,0,31,32a23.19,23.19,0,0,0,5-14.38V7.36A.77.77,0,0,0,35.36,6.59Zm-.91,11A21.48,21.48,0,0,1,18,38.42,21.46,21.46,0,0,1,1.55,17.58V8A48.76,48.76,0,0,0,18,1.7,49.35,49.35,0,0,0,34.45,8Z"/><path d="M18,5.68a.76.76,0,0,0,.38-.11h0a.79.79,0,0,0,.29-1.07.77.77,0,0,0-1.05-.29h0A.78.78,0,0,0,18,5.68Z"/><path d="M14.58,5.8A50.58,50.58,0,0,1,4.1,9.49a.78.78,0,0,0-.6.76v7.32a19.58,19.58,0,0,0,.17,2.54.77.77,0,0,0,.76.68h.11a.77.77,0,0,0,.66-.87,18.27,18.27,0,0,1-.15-2.34v-6.7A51.82,51.82,0,0,0,15.24,7.21a.79.79,0,0,0,.37-1A.77.77,0,0,0,14.58,5.8Z"/><path d="M31.72,9.47a.78.78,0,0,0-.77.78v7.32A18,18,0,0,1,20.6,33.81a.78.78,0,0,0,.65,1.42A19.55,19.55,0,0,0,32.5,17.57V10.25A.78.78,0,0,0,31.72,9.47Z"/><path d="M17.83,34.82h0a.78.78,0,0,0,.2,1.53l.2,0h0a.78.78,0,0,0-.4-1.51Z"/><path d="M28.37,20.15a2.07,2.07,0,0,0-.3-2.56l-.81-.8a.54.54,0,0,1-.15-.4l.08-1.14a2.05,2.05,0,0,0-1.45-2.13l-1.06-.33a.47.47,0,0,1-.32-.28l-.45-1a2.05,2.05,0,0,0-2.27-1.21l-1.08.22a.47.47,0,0,1-.41-.11l-.86-.7a2,2,0,0,0-2.58,0l-.86.7a.47.47,0,0,1-.41.11l-1.08-.22a2.07,2.07,0,0,0-2.28,1.21l-.44,1a.5.5,0,0,1-.32.28l-1.06.33a2,2,0,0,0-1.45,2.13l.08,1.14a.54.54,0,0,1-.15.4l-.81.8a2.07,2.07,0,0,0-.3,2.56l.59,1a.48.48,0,0,1,0,.42l-.35,1.09a2.08,2.08,0,0,0,.91,2.42l1,.58A.47.47,0,0,1,10,26l.19,1.12a2,2,0,0,0,1.92,1.72l1.1.06a.48.48,0,0,1,.38.2l.67.89a2.06,2.06,0,0,0,2.5.62l1-.47a.51.51,0,0,1,.42,0l1,.47a2,2,0,0,0,2.5-.62l.67-.89a.48.48,0,0,1,.38-.2l1.1-.06a2,2,0,0,0,1.92-1.72L26,26a.47.47,0,0,1,.24-.35l1-.58a2.08,2.08,0,0,0,.91-2.42l-.35-1.09a.48.48,0,0,1,.05-.42Zm-1.32-.82-.59,1a2.08,2.08,0,0,0-.2,1.72l.34,1.09a.51.51,0,0,1-.22.6l-1,.57a2.08,2.08,0,0,0-1,1.44l-.19,1.12a.5.5,0,0,1-.47.42l-1.1.06a2,2,0,0,0-1.53.81l-.67.89a.51.51,0,0,1-.62.16l-1-.47a2,2,0,0,0-1.74,0l-1,.47a.5.5,0,0,1-.61-.16l-.67-.89a2,2,0,0,0-1.53-.81l-1.1-.06a.5.5,0,0,1-.47-.42l-.19-1.12a2.11,2.11,0,0,0-1-1.44l-1-.57a.51.51,0,0,1-.22-.6L9.74,22a2.08,2.08,0,0,0-.2-1.72l-.6-1A.51.51,0,0,1,9,18.7l.8-.8a2.09,2.09,0,0,0,.61-1.62l-.08-1.15a.51.51,0,0,1,.36-.52l1.06-.32a2.06,2.06,0,0,0,1.29-1.16l.44-1a.5.5,0,0,1,.47-.3h.09l1.08.21a2,2,0,0,0,1.68-.42l.86-.7a.51.51,0,0,1,.64,0l.85.7a2.06,2.06,0,0,0,1.69.42l1.08-.21a.5.5,0,0,1,.56.29l.44,1a2.06,2.06,0,0,0,1.29,1.16l1.06.32a.51.51,0,0,1,.36.52l-.08,1.15a2.09,2.09,0,0,0,.61,1.62l.8.8A.5.5,0,0,1,27.05,19.33Z"/><path d="M20,16A.76.76,0,0,0,19,16.3L14.8,23.74a.79.79,0,0,0,.29,1.07.75.75,0,0,0,.38.1.79.79,0,0,0,.68-.4l4.16-7.44A.77.77,0,0,0,20,16Z"/><path d="M20.7,20.67A2.34,2.34,0,1,0,23,23,2.33,2.33,0,0,0,20.7,20.67Zm0,3.12a.78.78,0,1,1,.78-.78A.78.78,0,0,1,20.7,23.79Z"/><path d="M15.3,14.65A2.34,2.34,0,1,0,17.62,17,2.33,2.33,0,0,0,15.3,14.65Zm0,3.12a.78.78,0,1,1,.77-.78A.78.78,0,0,1,15.3,17.77Z"/></svg>