<svg xmlns="http://www.w3.org/2000/svg" viewBox="0 0 40 35"><path d="M8.61,25.2A.59.59,0,1,0,8,24.62.59.59,0,0,0,8.61,25.2Z"/><path d="M13.15,25.2a.59.59,0,1,0-.58-.58A.58.58,0,0,0,13.15,25.2Z"/><path d="M17.7,25.2a.59.59,0,1,0-.59-.58A.58.58,0,0,0,17.7,25.2Z"/><path d="M22.24,25.2a.59.59,0,1,0,0-1.17.59.59,0,1,0,0,1.17Z"/><path d="M26.78,25.2a.59.59,0,1,0-.58-.58A.58.58,0,0,0,26.78,25.2Z"/><path d="M31.33,25.2a.59.59,0,1,0-.59-.58A.58.58,0,0,0,31.33,25.2Z"/><path d="M35.87,25.2a.59.59,0,1,0-.58-.58A.58.58,0,0,0,35.87,25.2Z"/><path d="M40,24.62a3.19,3.19,0,0,0-3.2-3.18H14a.58.58,0,1,0,0,1.16H36.8a2,2,0,1,1,0,4H6.93a3.41,3.41,0,0,0-1-2.17s0-1.86,0-1.86h5.74a.58.58,0,1,0,0-1.16H5.94V15.65a1.94,1.94,0,0,0-.49-1.3,2.33,2.33,0,0,0,.47-1,2.5,2.5,0,0,0-.09-1.51l.13,0a2.15,2.15,0,0,0,1.29-1.07L9.37,6.71l2.12,4.06a2.19,2.19,0,0,0,2.71,1l1.51,2.61-1,1.69a.56.56,0,0,0,0,.52l.49,1.1a.57.57,0,0,0,.53.35A.69.69,0,0,0,16,18a.59.59,0,0,0,.3-.77l-.37-.84.77-1.37,1.55.36.38.83a.57.57,0,0,0,.53.35.69.69,0,0,0,.24-.05.58.58,0,0,0,.3-.77l-.49-1.1a.61.61,0,0,0-.41-.34l-2.05-.46-1.51-2.6a2.18,2.18,0,0,0,.66-2.78l-2.45-4.7A2.19,2.19,0,0,0,11.9,2.65a2.53,2.53,0,0,0-5-.73,2.59,2.59,0,0,0-.07.73A2.19,2.19,0,0,0,5.3,3.79L2.85,8.49a2.16,2.16,0,0,0-.07,1.87,2.5,2.5,0,0,0-.63.27,2.51,2.51,0,0,0-.67,3.73A2,2,0,0,0,1,15.65v8.83A3.42,3.42,0,0,0,0,26.9V34a1,1,0,0,0,1,1H12a.59.59,0,1,0,0-1.17H6.94v-6H36.8a3.66,3.66,0,0,0,.75-.09v6.12H14.36a.59.59,0,1,0,0,1.17H37.72a1,1,0,0,0,1-1V27.21a.07.07,0,0,0,0-.05A3.17,3.17,0,0,0,40,24.62Zm-37.82-9A.85.85,0,0,1,3,14.81h.9a.85.85,0,0,1,.85.84v8a3.5,3.5,0,0,0-1.3-.25,3.45,3.45,0,0,0-1.29.25v-8ZM12.41,4.33,14.86,9a1,1,0,0,1-.44,1.38l-.5.26a1,1,0,0,1-1.39-.43l-2.45-4.7A1,1,0,0,1,10,5a2.54,2.54,0,0,0,1.6-1.19A1,1,0,0,1,12.41,4.33ZM8.05,2.2a1.36,1.36,0,0,1,1.32-1,1.24,1.24,0,0,1,.33,0,1.35,1.35,0,1,1-1.65,1ZM3.89,9,6.34,4.33a1,1,0,0,1,.84-.55A2.53,2.53,0,0,0,8.77,5h0a1,1,0,0,1-.11.56l-2.46,4.7a1,1,0,0,1-.6.5,1,1,0,0,1-.78-.07l-.51-.26A1,1,0,0,1,3.89,9ZM2.14,12.46a1.37,1.37,0,0,1,1.65-1h.08l.38.2a1.37,1.37,0,0,1,.54,1.43,1.42,1.42,0,0,1-.34.61,1.83,1.83,0,0,0-.53-.07H3a1.9,1.9,0,0,0-.54.07A1.36,1.36,0,0,1,2.14,12.46ZM5.77,33.83H1.17V26.9a2.3,2.3,0,0,1,4.6,0Z"/></svg>