<svg xmlns="http://www.w3.org/2000/svg" viewBox="0 0 40 30"><path d="M14.83,6.63a8.43,8.43,0,1,0,8.36,8.43A8.41,8.41,0,0,0,14.83,6.63Zm0,15.63A7.21,7.21,0,1,1,22,15.06,7.18,7.18,0,0,1,14.83,22.26Z"/><path d="M39.39,22.92a.6.6,0,0,0-.6.61v3.29H29.66V15.38a15.52,15.52,0,0,0-1-5.55l.58-.59A2,2,0,0,0,29.54,7,16.86,16.86,0,0,0,22.88.24a1.9,1.9,0,0,0-2.27.32l-.54.54a14.36,14.36,0,0,0-5-1A14.68,14.68,0,0,0,4.34,4.49,14.91,14.91,0,0,0,0,15.29,14.68,14.68,0,0,0,4.57,25.73,15.21,15.21,0,0,0,15.15,30H27.76a1.91,1.91,0,0,0,1.9-1.91v0h9.73a.61.61,0,0,0,.61-.61V23.53A.61.61,0,0,0,39.39,22.92ZM28.44,28.09a.68.68,0,0,1-.68.69H15.15A13.9,13.9,0,0,1,1.21,15.27a13.68,13.68,0,0,1,4-9.91,13.45,13.45,0,0,1,9.63-4H15a13.89,13.89,0,0,1,13.4,14ZM28.36,8.37l-.24.25a15.65,15.65,0,0,0-2.7-3.9,14.78,14.78,0,0,0-4.16-3.09l.2-.21a.71.71,0,0,1,.84-.11,15.58,15.58,0,0,1,6.17,6.22A.69.69,0,0,1,28.36,8.37Z"/><path d="M18.51,4.58a10.47,10.47,0,0,1,1.38.6.64.64,0,0,0,.27.07.62.62,0,0,0,.28-1.16,12.17,12.17,0,0,0-1.53-.66.59.59,0,0,0-.77.37A.6.6,0,0,0,18.51,4.58Z"/><path d="M22.31,5.29a.61.61,0,0,0-.74,1,11.2,11.2,0,0,1,3.14,3.86.62.62,0,0,0,.55.34.48.48,0,0,0,.26-.07.61.61,0,0,0,.28-.81A12.42,12.42,0,0,0,22.31,5.29Z"/><path d="M19,11.93a.62.62,0,0,0-.23.83,4.63,4.63,0,0,1,.61,2.3,4.57,4.57,0,1,1-4.56-4.6,4.49,4.49,0,0,1,2.85,1,.6.6,0,0,0,.85-.1.62.62,0,0,0-.09-.86,5.9,5.9,0,1,0,1.39,1.64A.59.59,0,0,0,19,11.93Z"/></svg>