<svg xmlns="http://www.w3.org/2000/svg" width="36" height="24" viewBox="0 0 36 24"><path d="M0,3A3,3,0,0,1,3,0H33a3,3,0,0,1,3,3V21a3,3,0,0,1-3,3H3a3,3,0,0,1-3-3Z" fill="#fff"/><path d="M27.91,18.85c1.38,0,2-.53,2.6-2.13l2.49-7H31.56l-1.67,5.41h0l-1.67-5.4H26.71l2.4,6.65-.13.4a1.12,1.12,0,0,1-1.2.95l-.41,0v1.1a4.89,4.89,0,0,0,.54,0Zm-4.81-3.5c-.75,0-1.23-.37-1.23-.92s.46-.91,1.34-1l1.58-.1v.51a1.54,1.54,0,0,1-1.6,1.48H23.1Zm-.38,1.08a2.32,2.32,0,0,0,2.09-1.16h0v1.09h1.32V11.82c0-1.32-1.06-2.17-2.68-2.17s-2.62.86-2.66,2H22.1a1.24,1.24,0,0,1,1.34-.93c.86,0,1.35.41,1.35,1.15v.5L23,12.52c-1.64.1-2.54.77-2.54,2a2,2,0,0,0,2.24,2Zm-7.6-8h1.63a1.7,1.7,0,0,1,1.93,1.81,1.71,1.71,0,0,1-1.93,1.82H15.12ZM13.7,7.23v9.13h1.42V13.25h2a2.9,2.9,0,0,0,3.05-2.74,1.22,1.22,0,0,0,0-.27,2.85,2.85,0,0,0-2.72-3H13.7ZM9,8.93c-.81,0-1.51.46-1.9.46S6.11,9,5.46,9a2.39,2.39,0,0,0-2,1.24c-.88,1.51-.23,3.75.62,5,.42.61.91,1.28,1.57,1.25s.87-.4,1.62-.4,1,.4,1.63.39,1.1-.61,1.52-1.22a5.19,5.19,0,0,0,.68-1.4,2.2,2.2,0,0,1-1.32-2,2.24,2.24,0,0,1,1.07-1.89A2.32,2.32,0,0,0,9,8.93Zm-.51-.81A1.83,1.83,0,0,1,7,8.82a2.09,2.09,0,0,1,.52-1.53A2.22,2.22,0,0,1,9,6.54a2.22,2.22,0,0,1-.52,1.58"/></svg>