<svg xmlns="http://www.w3.org/2000/svg" width="36" height="24" viewBox="0 0 36 24"><path d="M0,3A3,3,0,0,1,3,0H33a3,3,0,0,1,3,3V21a3,3,0,0,1-3,3H3a3,3,0,0,1-3-3Z" fill="#fff"/><path d="M17.19,12.81v3.46H16.08V7.71H19a2.53,2.53,0,0,1,1,.18,2.7,2.7,0,0,1,.88.56,2.42,2.42,0,0,1,.6.82,2.57,2.57,0,0,1,.2,1,2.4,2.4,0,0,1-.2,1,2.36,2.36,0,0,1-.6.83,2.68,2.68,0,0,1-1.9.73Zm0-4.05v3h1.86a1.5,1.5,0,0,0,.59-.1,1.43,1.43,0,0,0,.5-.34,1.47,1.47,0,0,0,.33-.48,1.39,1.39,0,0,0,0-1.13,1.68,1.68,0,0,0-.83-.83,1.71,1.71,0,0,0-.59-.11Z" fill="#5f6368"/><path d="M24.27,10.22a2.75,2.75,0,0,1,1.94.66,2.3,2.3,0,0,1,.71,1.78v3.61H25.86v-.81h-.05a2.13,2.13,0,0,1-1.83,1,2.41,2.41,0,0,1-1.63-.58,1.72,1.72,0,0,1-.49-.64,1.81,1.81,0,0,1-.17-.79A1.74,1.74,0,0,1,22.38,13a3,3,0,0,1,1.85-.54,3.31,3.31,0,0,1,1.63.36v-.25a1.25,1.25,0,0,0-.12-.54,1.34,1.34,0,0,0-.34-.44,1.61,1.61,0,0,0-1.07-.4,1.7,1.7,0,0,0-1.47.78l-1-.61A2.73,2.73,0,0,1,24.27,10.22Zm-1.44,4.26a.91.91,0,0,0,.1.4.94.94,0,0,0,.27.32,1.35,1.35,0,0,0,.86.28A1.76,1.76,0,0,0,25.31,15a1.58,1.58,0,0,0,.55-1.21,2.31,2.31,0,0,0-1.45-.41,1.84,1.84,0,0,0-1.12.33A1,1,0,0,0,22.83,14.48Z" fill="#5f6368"/><path d="M33,10.41l-3.7,8.45H28.16l1.37-3L27.1,10.41h1.2l1.76,4.21h0l1.71-4.21Z" fill="#5f6368"/><path d="M11.24,15.68h0a4.81,4.81,0,0,0,1.47-3.62,6.63,6.63,0,0,0-.08-1H8V13h2.68a2.17,2.17,0,0,1-.34.85,2.24,2.24,0,0,1-.65.65h0Z" fill="#4285f4"/><path d="M9.64,14.45h0a3,3,0,0,1-4.47-1.56h0L3.53,14.16h0a4.87,4.87,0,0,0,1.82,2,5,5,0,0,0,2.6.74,4.78,4.78,0,0,0,3.29-1.19h0Z" fill="#34a853"/><path d="M5.17,12.89a3.05,3.05,0,0,1,0-1.89L3.53,9.74h0A4.83,4.83,0,0,0,3,12a4.89,4.89,0,0,0,.53,2.21h0l1.64-1.27Z" fill="#fbbc04"/><path d="M5.17,11h0A3,3,0,0,1,8,9a2.72,2.72,0,0,1,1.9.74l1.42-1.4A4.75,4.75,0,0,0,8,7a5,5,0,0,0-2.6.73,4.89,4.89,0,0,0-1.82,2h0Z" fill="#ea4335"/></svg>