<svg xmlns="http://www.w3.org/2000/svg" xmlns:xlink="http://www.w3.org/1999/xlink" width="65" height="24" viewBox="0 0 65 24"><defs><linearGradient id="a" x1="3" y1="14" x2="21" y2="14" gradientTransform="matrix(1, 0, 0, -1, 0, 26)" gradientUnits="userSpaceOnUse"><stop offset="0" stop-color="#313131"/><stop offset="1" stop-color="#0e0f0f"/></linearGradient></defs><path d="M0,3A3,3,0,0,1,3,0H62a3,3,0,0,1,3,3V21a3,3,0,0,1-3,3H3a3,3,0,0,1-3-3Z" fill="#fff"/><path d="M12,3a9,9,0,1,1-9,9A9,9,0,0,1,12,3Z" fill="url(#a)"/><path d="M12,3a9,9,0,1,0,9,9A9,9,0,0,0,12,3Zm0,17a8,8,0,1,1,8-8A8,8,0,0,1,12,20Z" fill="#8cbf5c"/><path d="M15.15,10l-2,3h2Zm.75-1.21v4.18h.88v.76H15.9v1.56h-.76V13.69H12.3v-.81l2.86-4.12Zm-4.43,5.74v.76H7.22v0a2.76,2.76,0,0,1,.57-1.67A5.22,5.22,0,0,1,9.15,12.5l.32-.21a3.63,3.63,0,0,0,.83-.66,1.42,1.42,0,0,0,.38-1,1.16,1.16,0,0,0-1.23-1.2c-.84,0-1.27.64-1.29,1.6H7.4v-.18a2,2,0,0,1,2.1-2.14,1.85,1.85,0,0,1,2,1.9,2,2,0,0,1-.61,1.48,6,6,0,0,1-1.33,1s0,0,0,0l-.23.14a4.12,4.12,0,0,0-.72.51,1.4,1.4,0,0,0-.44.73Z" fill="#fff"/><path d="M25.65,8.37h3a2.72,2.72,0,0,1,1.76.53,1.93,1.93,0,0,1,.64,1.58,2.06,2.06,0,0,1-.6,1.56,2.28,2.28,0,0,1-1.64.58H26.87v2.66H25.65Zm1.22,1v2.26h1.69c.88,0,1.31-.38,1.31-1.13s-.47-1.13-1.42-1.13Z" fill="#0d0e0f"/><path d="M34.65,10.18v1.06l-.39,0c-1,0-1.44.62-1.44,1.87v2.2h-1.1v-5h1v1a1.77,1.77,0,0,1,1.68-1.11Z" fill="#0d0e0f"/><path d="M36.46,8.35V9.43H35.35V8.35Zm0,1.93v5H35.35v-5Z" fill="#0d0e0f"/><path d="M37.24,10.28h1.2l1.29,3.85L41,10.28H42.1l-1.79,5H39.07Z" fill="#0d0e0f"/><path d="M42.48,11.82c.12-1.13.85-1.69,2.2-1.69a2.75,2.75,0,0,1,1.5.36,1.28,1.28,0,0,1,.55,1.15v2.54a.5.5,0,0,0,.06.29.22.22,0,0,0,.2.08l.25,0v.78a3.08,3.08,0,0,1-.71.11c-.47,0-.75-.2-.82-.6a2.41,2.41,0,0,1-1.75.6,1.81,1.81,0,0,1-1.24-.4,1.4,1.4,0,0,1-.45-1.1,1.61,1.61,0,0,1,0-.39,2,2,0,0,1,.12-.32.65.65,0,0,1,.2-.25l.24-.2a.84.84,0,0,1,.3-.14l.31-.1a1.81,1.81,0,0,1,.36-.08l.33,0,.34-.05a6.77,6.77,0,0,0,.81-.13.47.47,0,0,0,.29-.16.57.57,0,0,0,.07-.36c0-.5-.34-.76-1-.76a1.25,1.25,0,0,0-.8.21,1.12,1.12,0,0,0-.32.69H42.48Zm3.18.95a1.1,1.1,0,0,1-.29.12,1.35,1.35,0,0,1-.27.07l-.32,0-.29,0-.32,0-.28.08a1,1,0,0,0-.27.14.84.84,0,0,0-.16.23.81.81,0,0,0-.07.33.66.66,0,0,0,.24.55,1,1,0,0,0,.66.19,1.56,1.56,0,0,0,1.14-.39,1.25,1.25,0,0,0,.22-.87v-.59Z" fill="#0d0e0f"/><path d="M50.42,10.28v.8h-1v2.64c0,.15,0,.26,0,.33a.56.56,0,0,0,.06.2.23.23,0,0,0,.17.15,1,1,0,0,0,.33,0l.44,0v.87a5.66,5.66,0,0,1-.75,0,2.64,2.64,0,0,1-.51,0,2,2,0,0,1-.36-.1.49.49,0,0,1-.24-.21,1.45,1.45,0,0,1-.15-.23.71.71,0,0,1-.08-.33,2.88,2.88,0,0,1,0-.35v-3h-.83v-.8h.83V8.77h1.11v1.51Z" fill="#0d0e0f"/><path d="M56.23,14.3v1H51.6a2.73,2.73,0,0,1,.12-.83A3.35,3.35,0,0,1,52,13.8a2.37,2.37,0,0,1,.45-.55A6.1,6.1,0,0,1,53,12.8c.16-.12.38-.28.66-.46l.28-.19.32-.21.26-.21a1.35,1.35,0,0,0,.27-.26l.17-.26a.81.81,0,0,0,.15-.33,2.2,2.2,0,0,0,0-.36,1.14,1.14,0,0,0-.3-.84,1,1,0,0,0-.8-.3,1.12,1.12,0,0,0-.5.09.88.88,0,0,0-.34.23,1.5,1.5,0,0,0-.2.38,2.53,2.53,0,0,0-.1.42,3.43,3.43,0,0,0,0,.48H51.77v-.17a2.42,2.42,0,0,1,.62-1.74A2.49,2.49,0,0,1,55.64,9a1.91,1.91,0,0,1,.6,1.47,2.28,2.28,0,0,1-.11.7,2.4,2.4,0,0,1-.25.53,2.11,2.11,0,0,1-.45.48,5,5,0,0,1-.48.38l-.57.39a3.67,3.67,0,0,0-1.45,1.37Z" fill="#0d0e0f"/><path d="M61.5,12.74v.93h-.86v1.61H59.57V13.67H56.68V12.58l2.91-4.14h1v4.3Zm-1.92,0V9.8l-2,2.94Z" fill="#0d0e0f"/></svg>