<svg xmlns="http://www.w3.org/2000/svg" xmlns:xlink="http://www.w3.org/1999/xlink" style="display:none"><symbol id="arrow-next" viewBox="0 0 27 47"><path d="M.93 46.08a3.14 3.14 0 004.45 0l20.88-20.81a2.48 2.48 0 000-3.54L5.38.92A3.14 3.14 0 00.93 5.35l18.2 18.16L.9 41.67a3.12 3.12 0 00.03 4.41z"/></symbol><symbol id="arrow-prev" viewBox="0 0 27 47"><path d="M26.07.92a3.14 3.14 0 00-4.45 0L.74 21.73a2.48 2.48 0 000 3.54l20.88 20.81a3.14 3.14 0 004.45-4.43L7.87 23.49 26.1 5.33a3.12 3.12 0 00-.03-4.41z"/></symbol><symbol id="asterisk-icon"><path d="M2.82 7h1.36l-.12-2.56 2.25 1.39L7 4.67 4.61 3.5 7 2.33l-.69-1.16-2.25 1.39L4.18 0H2.82l.12 2.56L.69 1.17 0 2.33 2.39 3.5 0 4.67l.69 1.16 2.25-1.39z"/></symbol><symbol id="filter-icon"><path d="M0 1a1 1 0 001 1h16a1 1 0 000-2H1a1 1 0 00-1 1zm8 11h2a1 1 0 000-2H8a1 1 0 000 2zm6-5H4a1 1 0 010-2h10a1 1 0 010 2z"/></symbol><symbol id="left-arrow-icon"><path d="M7.05 14a.93.93 0 01-.67-.29L0 7 6.38.29a.91.91 0 011.34 0 1 1 0 010 1.42L2.69 7l5 5.29a1 1 0 010 1.42.93.93 0 01-.64.29z"/></symbol><symbol id="right-arrow-icon"><path d="M1 14a.93.93 0 01-.67-.29 1 1 0 010-1.42L5.31 7l-5-5.29A1 1 0 01.28.29a.91.91 0 011.34 0L8 7l-6.38 6.71A.93.93 0 011 14z"/></symbol><symbol id="scroll-down-icon"><path d="M20 0A20.2 20.2 0 000 20.35v21.3A20.2 20.2 0 0020 62a20.2 20.2 0 0020-20.35v-21.3A20.2 20.2 0 0020 0zm17 41.65A17.2 17.2 0 0120 59 17.2 17.2 0 013 41.65v-21.3A17.2 17.2 0 0120 3a17.2 17.2 0 0117 17.35z" fill="#242723"/><path d="M20 29.83a1.5 1.5 0 01-1.5-1.5V13.92a1.5 1.5 0 013 0v14.41a1.5 1.5 0 01-1.5 1.5z" fill="#242723"/></symbol></svg>