<svg xmlns="http://www.w3.org/2000/svg" viewBox="0 0 24 24"><path d="M23.8,2.94,21,.21A.59.59,0,0,0,20.54,0H9.19a.6.6,0,0,0-.6.61V2.47l-4,.69a.6.6,0,0,0-.48.69l.2,1.2C3,5.49,1.68,6,.39,6.41A.63.63,0,0,0,0,7.18L2.6,14.37a.34.34,0,0,0,.33.24l.12,0a.37.37,0,0,0,.21-.46L.73,7C2,6.6,3.21,6.18,4.43,5.76l1.21,7.11L7,21.06a.59.59,0,0,0,.59.49h.1l3.76-.66,2.94-.5L10,22,6.51,23.26,3.8,15.65a.35.35,0,1,0-.66.24l2.75,7.72a.58.58,0,0,0,.55.39.45.45,0,0,0,.2,0l3.6-1.3,8.16-3L20,19.43H23.4a.61.61,0,0,0,.6-.61V3.34A.5.5,0,0,0,23.8,2.94ZM22.87,3h-1.8c-.09,0-.28,0-.33,0a.21.21,0,0,1,0-.13V.94Zm.43,15.7h-14V11.8a.35.35,0,0,0-.35-.36.36.36,0,0,0-.35.36v7a.61.61,0,0,0,.6.61h6.6l-4.43.76-3.65.64L6.33,12.75,4.82,3.84l3.77-.65v7a.36.36,0,0,0,.35.36.35.35,0,0,0,.35-.36V.71H20V2.86a.85.85,0,0,0,.23.62,1.06,1.06,0,0,0,.78.26H23.3Z"/><path d="M11,5.51a.36.36,0,0,0,.35.36H21.39a.36.36,0,0,0,0-.71h-10A.35.35,0,0,0,11,5.51Z"/><path d="M21.39,7.68h-10a.36.36,0,0,0,0,.71H21.39a.36.36,0,0,0,0-.71Z"/><path d="M21.39,10.2h-10a.36.36,0,0,0,0,.71H21.39a.36.36,0,0,0,0-.71Z"/><path d="M21.39,12.72h-10a.36.36,0,0,0-.35.36.35.35,0,0,0,.35.35H21.39a.34.34,0,0,0,.35-.35A.35.35,0,0,0,21.39,12.72Z"/><path d="M21.39,15.25h-10a.36.36,0,0,0,0,.71H21.39a.36.36,0,0,0,0-.71Z"/></svg>