<svg xmlns="http://www.w3.org/2000/svg" viewBox="0 0 24 24"><path d="M23.61,3.49,20.52.39a1.33,1.33,0,0,0-1.88,0L1.37,17.66a.36.36,0,0,0-.09.17L0,23.61a.37.37,0,0,0,.1.3A.4.4,0,0,0,.4,24l5.77-1.28a.39.39,0,0,0,.17-.09L23.63,5.34A1.29,1.29,0,0,0,23.61,3.49Zm-5.85-1.3L18.6,3,3.47,18.17,2.2,17.76Zm1.31,1.32L20.52,5,5.37,20.08l-1.24-.2-.21-1.22ZM.75,23.25l.44-1.89,1.46,1.46Zm2.67-.58L1.35,20.61l.51-2.27,1.44.47.25,1.42a.32.32,0,0,0,.26.26l1.43.25.46,1.44Zm2.83-.88-.41-1.28L21,5.38l.84.84ZM23.16,4.89l-.88.89L18.23,1.72l.88-.88a.66.66,0,0,1,.94,0l3.09,3.1A.7.7,0,0,1,23.16,4.89Z"/></svg>