<svg xmlns="http://www.w3.org/2000/svg" viewBox="0 0 22 19"><path d="M2.2,15.2H1.47v2.28H2.2Z"/><path d="M3.67,15.2H2.93V16h.74Z"/><path d="M3.67,16.72H2.93v.76h.74Z"/><path d="M8.27,6A7.49,7.49,0,0,0,11,6.46,7.49,7.49,0,0,0,13.73,6c.84-.35,1.3-.86,1.3-1.43s-.46-1.08-1.3-1.43A7.49,7.49,0,0,0,11,2.66a7.49,7.49,0,0,0-2.73.47C7.43,3.48,7,4,7,4.56S7.43,5.64,8.27,6ZM11,3.42c2,0,3.3.68,3.3,1.14S13,5.7,11,5.7,7.7,5,7.7,4.56,9,3.42,11,3.42Z"/><path d="M19.07,8.36H18.7V4.56a4,4,0,0,0-2.34-3.29A11,11,0,0,0,11,0,11,11,0,0,0,5.64,1.27,4,4,0,0,0,3.3,4.56V9.88a4,4,0,0,0,2.34,3.29,8.08,8.08,0,0,0,1.07.51H.37a.36.36,0,0,0-.26.11.39.39,0,0,0-.11.27v4.56a.39.39,0,0,0,.11.27A.36.36,0,0,0,.37,19h18.7a2.89,2.89,0,0,0,2.07-.89A3.09,3.09,0,0,0,22,16V11.4a3.09,3.09,0,0,0-.86-2.15A2.89,2.89,0,0,0,19.07,8.36ZM4.4,18.24H.73v-3.8H4.4ZM18,8.36H15.29a8.08,8.08,0,0,0,1.07-.51A5.56,5.56,0,0,0,18,6.53ZM6,1.94A10.28,10.28,0,0,1,11,.76a10.28,10.28,0,0,1,5,1.18,3.25,3.25,0,0,1,2,2.62,3.25,3.25,0,0,1-2,2.62,10.28,10.28,0,0,1-5,1.18A10.28,10.28,0,0,1,6,7.18,3.25,3.25,0,0,1,4,4.56,3.25,3.25,0,0,1,6,1.94ZM6,12.5A3.25,3.25,0,0,1,4,9.88V6.53A5.56,5.56,0,0,0,5.64,7.85a6.54,6.54,0,0,0,.59.3V9.88H7V8.46a10,10,0,0,0,1.1.32v1.1H8.8v-1a10,10,0,0,0,1.1.14V11.4h.73V9.11h1.1v.76h.74V9.12h1.1v.76h.73V9.12h1.1V11.4h.73V9.12h1.1v.76H18V9.12h1.1v.76h.73V9.25a2.18,2.18,0,0,1,1.16,1,2.29,2.29,0,0,1,.27,1.54,2.21,2.21,0,0,1-.75,1.35,2.11,2.11,0,0,1-1.41.54H11A10.28,10.28,0,0,1,6,12.5ZM21.27,16a2.35,2.35,0,0,1-.65,1.61,2.14,2.14,0,0,1-1.55.67H5.13v-3.8h1.1v.76H7v-.76h1.1v.76H8.8v-.76H9.9v2.28h.73V14.44h1.1v.76h.74v-.76h1.1v.76h.73v-.76h1.1v2.28h.73V14.44h1.1v.76H18v-.76h1.1v.76h.73v-.86a3,3,0,0,0,1.47-.93Z"/></svg>