<svg xmlns="http://www.w3.org/2000/svg" viewBox="0 0 17 30"><path d="M10.5,30H5.7a1.45,1.45,0,0,1-1.45-1.46V17.71H1.45A1.45,1.45,0,0,1,0,16.25V11.61a1.46,1.46,0,0,1,1.45-1.46h2.8V7.83A7.89,7.89,0,0,1,6.34,2.16,7.52,7.52,0,0,1,11.89,0h3.66A1.45,1.45,0,0,1,17,1.46V5.77a1.46,1.46,0,0,1-1.45,1.46H13.08c-.75,0-.94.15-1,.2s-.15.29-.15.89v1.83h3.41a1.47,1.47,0,0,1,1.47,1.46v4.64a1.46,1.46,0,0,1-1.46,1.46H12V28.54A1.45,1.45,0,0,1,10.5,30ZM6,28.24H10.2V16.92a1,1,0,0,1,1-1h3.9v-4h-3.9a1,1,0,0,1-1-1V8.32a3,3,0,0,1,.59-2.06,3,3,0,0,1,2.29-.79h2.16V1.76H11.89C8.26,1.76,6,4.09,6,7.83v3.11a1,1,0,0,1-1,1H1.76v4H5a1,1,0,0,1,1,1ZM15.55,1.76Z"/></svg>