<svg xmlns="http://www.w3.org/2000/svg" viewBox="0 0 30 30"><path d="M24.06,0H5.94A5.94,5.94,0,0,0,0,5.94V24.06A5.94,5.94,0,0,0,5.94,30H24.06A5.94,5.94,0,0,0,30,24.06V5.94A5.94,5.94,0,0,0,24.06,0Zm4.07,24.06a4.08,4.08,0,0,1-4.07,4.07H5.94a4.07,4.07,0,0,1-4.06-4.07V5.94A4.06,4.06,0,0,1,5.94,1.88H24.06a4.07,4.07,0,0,1,4.07,4.06Z"/><path d="M15,7.5A7.5,7.5,0,1,0,22.5,15,7.5,7.5,0,0,0,15,7.5Zm0,13.16A5.66,5.66,0,1,1,20.66,15,5.67,5.67,0,0,1,15,20.66Z"/><path d="M23.13,5a1.84,1.84,0,0,0-1.88,1.88,1.88,1.88,0,0,0,3.75,0A1.83,1.83,0,0,0,23.13,5Zm-.25,1.88c0-.3.4-.22.44-.18C23.66,7,22.88,7.37,22.88,6.88Z"/></svg>