<svg xmlns="http://www.w3.org/2000/svg" viewBox="0 0 32 32"><path d="M16,0C6.06,0,0,7.52,0,15c0,4.43,2.35,8,5.74,10.8v5.24a1,1,0,0,0,.47.82,1,1,0,0,0,.47.12.9.9,0,0,0,.47-.13l4.79-2.79a19.78,19.78,0,0,0,4.12.46C24.52,29.54,32,23.25,32,14.8,32,6.07,24,0,16,0Zm0,27.66A17.58,17.58,0,0,1,12,27.17a1,1,0,0,0-.69.1L7.62,29.43V25.37a.91.91,0,0,0-.35-.72c-3.63-2.94-5.4-6.09-5.4-9.63C1.87,8.56,7.16,1.87,16,1.87c6.82,0,14.12,5.2,14.12,12.93C30.13,21.89,23.82,27.66,16.06,27.66Z"/><path d="M25.81,11.21a.85.85,0,0,0-1.15-.27c-2.09,1.24-4.17,2.35-6.19,3.52L15,10.93a.84.84,0,0,0-1.27.05c-2.46,2.82-5,5.82-7.44,8.67a1.07,1.07,0,0,0-.07,1.27.86.86,0,0,0,1.13.31c.19-.11,4.45-2.54,6.28-3.69,1.11,1.24,2.3,2.37,3.47,3.53a.83.83,0,0,0,.61.26.88.88,0,0,0,.66-.3l7.42-8.53A1.07,1.07,0,0,0,25.81,11.21ZM17.63,19c-1.13-1.12-2.24-2.19-3.25-3.37a.85.85,0,0,0-1.33,0c-.36.24-1,.63-1.73,1.06l3.07-3.58,3.33,3.35a.85.85,0,0,0,1.05.14c.62-.37,1.25-.73,1.9-1.1Z"/></svg>