<svg xmlns="http://www.w3.org/2000/svg" viewBox="0 0 32 28"><path d="M25.15,5.67A.93.93,0,0,0,24,5.46l-13.66,8a1.92,1.92,0,0,0-.89,2.19l1.48,4.95a1,1,0,0,0,1,.7h.08a1,1,0,0,0,.93-.84l.38-2.71a1.58,1.58,0,0,1,.52-1L25,6.82A.82.82,0,0,0,25.15,5.67ZM12.87,15.9a2.81,2.81,0,0,0-.93,1.71l-.18,1.32-1.08-3.6a.66.66,0,0,1,.32-.76L21,8.68Z"/><path d="M31.48.35A1.45,1.45,0,0,0,30,.1L.94,11.3a1.47,1.47,0,0,0,0,2.75l6.78,2.53,2.65,8.51a1.47,1.47,0,0,0,2.34.7l3.94-3.22a.54.54,0,0,1,.66,0l7.12,5.16a1.5,1.5,0,0,0,.86.28,1.39,1.39,0,0,0,.53-.1,1.49,1.49,0,0,0,.92-1.07L32,1.77A1.47,1.47,0,0,0,31.48.35Zm-6,26.22a.2.2,0,0,1-.31.12l-7.12-5.17a1.82,1.82,0,0,0-2.21.07L11.92,24.8a.19.19,0,0,1-.18,0,.2.2,0,0,1-.13-.13L8.87,15.9a.64.64,0,0,0-.39-.41L1.4,12.85a.17.17,0,0,1-.12-.18.17.17,0,0,1,.12-.18L30.46,1.29h0a.19.19,0,0,1,.2,0,.2.2,0,0,1,.06.19Z"/><path d="M26.18,14.68a.63.63,0,0,0-.74.38l-.09.34a.51.51,0,0,0,.47.59H26a.61.61,0,0,0,.61-.39l.09-.34C26.73,15,26.51,14.74,26.18,14.68Z"/><path d="M26.18,17.35a.61.61,0,0,0-.74.48L24,24.56a.64.64,0,0,0,.48.76h.13a.63.63,0,0,0,.61-.5l1.42-6.73A.62.62,0,0,0,26.18,17.35Z"/></svg>