<svg xmlns="http://www.w3.org/2000/svg" viewBox="0 0 30 32"><path d="M30,11.29a11.08,11.08,0,0,0-3.4-8A11.62,11.62,0,0,0,18.43,0H11.57A11.62,11.62,0,0,0,3.4,3.32a11.08,11.08,0,0,0-3.4,8v5.26A11.06,11.06,0,0,0,2.1,23a11.61,11.61,0,0,0,4.75,3.83v3c0,1.57.9,2.12,1.67,2.12a2.37,2.37,0,0,0,1.63-.78l3.45-3.37h4.83a11.62,11.62,0,0,0,8.17-3.32,11.09,11.09,0,0,0,3.4-8ZM18.43,26H13.2a1,1,0,0,0-.68.28L8.79,29.89h0V26.24a1,1,0,0,0-.62-.88,9.51,9.51,0,0,1-6.24-8.81V11.29A9.25,9.25,0,0,1,4.76,4.64a9.72,9.72,0,0,1,6.81-2.76h6.86a9.72,9.72,0,0,1,6.81,2.76,9.25,9.25,0,0,1,2.84,6.65v5.26A9.54,9.54,0,0,1,18.43,26Z"/><path d="M17.28,15A.91.91,0,0,0,16,15l-.73.73L12.4,12.85l.74-.74a.91.91,0,0,0,.27-.64.93.93,0,0,0-.27-.65L9.69,7.37A.93.93,0,0,0,9,7.1a.91.91,0,0,0-.64.27L6,9.79a3.35,3.35,0,0,0,0,4.74l7.59,7.6a3.39,3.39,0,0,0,4.75,0l2.41-2.42a.91.91,0,0,0,0-1.29ZM17,20.84a1.55,1.55,0,0,1-1.08.44,1.57,1.57,0,0,1-1.09-.44l-7.59-7.6a1.52,1.52,0,0,1,0-2.16L9,9.3l2.16,2.17-.73.73a1,1,0,0,0-.27.65.91.91,0,0,0,.27.64l4.14,4.15a.92.92,0,0,0,1.29,0l.74-.74,2.16,2.16Z"/><path d="M15.26,4.44a.92.92,0,1,0,0,1.84,7.92,7.92,0,0,1,7.9,7.9.92.92,0,0,0,1.84,0,9.73,9.73,0,0,0-9.74-9.74Z"/><path d="M19.17,14.19a.92.92,0,0,0,1.83,0,5.76,5.76,0,0,0-5.75-5.75.92.92,0,1,0,0,1.83A3.93,3.93,0,0,1,19.17,14.19Z"/></svg>