<svg xmlns="http://www.w3.org/2000/svg" viewBox="0 0 32 32"><path d="M27.45,4.55A15.37,15.37,0,0,0,16.48,0h0A15.52,15.52,0,0,0,2.69,22.64L.08,30.09A1.44,1.44,0,0,0,1.43,32a1.56,1.56,0,0,0,.48-.08l7.45-2.61A15.59,15.59,0,0,0,16.48,31,15.53,15.53,0,0,0,32,15.52,15.37,15.37,0,0,0,27.45,4.55ZM26.13,25.16a13.63,13.63,0,0,1-16,2.4,1.44,1.44,0,0,0-1.15-.08L2.16,29.84l2.36-6.77a1.44,1.44,0,0,0-.08-1.15,13.64,13.64,0,0,1,12-20h0a13.64,13.64,0,0,1,9.65,23.28Z"/><path d="M22.63,16.69a1.88,1.88,0,0,0-2.65,0l-.8.8a11.6,11.6,0,0,1-4.67-4.67l.8-.8a1.88,1.88,0,0,0,0-2.65L13.15,7.21a1.88,1.88,0,0,0-2.65,0L8.78,8.94c-1,1-1,2.68-.14,4.78a18.77,18.77,0,0,0,4,5.62,19,19,0,0,0,5.62,4A6.91,6.91,0,0,0,21,24a2.85,2.85,0,0,0,2.1-.78l1.72-1.72h0a1.86,1.86,0,0,0,.55-1.33,1.82,1.82,0,0,0-.55-1.32Zm-.93,5.17c-.28.28-1.15.38-2.66-.27A17,17,0,0,1,14,18a17,17,0,0,1-3.6-5c-.65-1.51-.56-2.38-.27-2.66l1.69-1.69,2.08,2.08-1,1a1.46,1.46,0,0,0-.27,1.7,13.62,13.62,0,0,0,6,6,1.46,1.46,0,0,0,1.7-.27l1-1,2.09,2.08Z"/></svg>