<svg xmlns="http://www.w3.org/2000/svg" width="13" height="11" viewBox="0 0 13 11"><path d="M16.18,6.86,9.85,15a1.64,1.64,0,0,1-.4.34,1.21,1.21,0,0,1-.52.16,1,1,0,0,1-.49,0A1.18,1.18,0,0,1,8,15.23L4,11.46a1.23,1.23,0,0,1-.3-.38,1.16,1.16,0,0,1-.15-.51,1.51,1.51,0,0,1,0-.52,1.28,1.28,0,0,1,.23-.45,1.1,1.1,0,0,1,.37-.31.94.94,0,0,1,.49-.15.9.9,0,0,1,.46,0,1.33,1.33,0,0,1,.41.25l3.06,2.79L14.19,5a1.24,1.24,0,0,1,.89-.46,1.31,1.31,0,0,1,1,.34h0a1.51,1.51,0,0,1,.14,2Z" transform="translate(-3.5 -4.5)"/></svg>