<svg xmlns="http://www.w3.org/2000/svg" xmlns:xlink="http://www.w3.org/1999/xlink" style="display:none"><symbol id="arrow-next" viewBox="0 0 27 47"><path d="M.93 46.08a3.14 3.14 0 0 0 4.45 0l20.88-20.81a2.48 2.48 0 0 0 0-3.54L5.38.92A3.14 3.14 0 0 0 .93 5.35l18.2 18.16L.9 41.67a3.12 3.12 0 0 0 .03 4.41Z"/></symbol><symbol id="arrow-prev" viewBox="0 0 27 47"><path d="M26.07.92a3.14 3.14 0 0 0-4.45 0L.74 21.73a2.48 2.48 0 0 0 0 3.54l20.88 20.81a3.14 3.14 0 0 0 4.45-4.43L7.87 23.49 26.1 5.33a3.12 3.12 0 0 0-.03-4.41Z"/></symbol><symbol id="asterisk-icon"><path d="M2.82 7h1.36l-.12-2.56 2.25 1.39L7 4.67 4.61 3.5 7 2.33l-.69-1.16-2.25 1.39L4.18 0H2.82l.12 2.56L.69 1.17 0 2.33 2.39 3.5 0 4.67l.69 1.16 2.25-1.39Z"/></symbol><symbol id="calendar-icon" viewBox="0 0 26 26"><path d="M24.37 3.25A1.63 1.63 0 0 1 26 4.87v19.51A1.63 1.63 0 0 1 24.37 26H1.62A1.63 1.63 0 0 1 0 24.38V4.87a1.63 1.63 0 0 1 1.62-1.62h3.25V0h4.88v3.25h6.5V0h4.88v3.25Zm-1.62 19.5V8.12H3.25v14.63ZM6.5 11.37h3.25v3.26H6.5Zm4.88 0h3.24v3.26h-3.24Z"/></symbol><symbol id="down-arrow-icon"><path d="m.25 1.79 4 4.83a1 1 0 0 0 1.46.12l.12-.12 4-4.83A1.13 1.13 0 0 0 9.64.26 1 1 0 0 0 9 0H1a1.05 1.05 0 0 0-1 1.08 1.14 1.14 0 0 0 .25.71Z"/></symbol><symbol id="filter-icon"><path d="M0 1a1 1 0 0 0 1 1h16a1 1 0 0 0 0-2H1a1 1 0 0 0-1 1Zm8 11h2a1 1 0 0 0 0-2H8a1 1 0 0 0 0 2Zm6-5H4a1 1 0 0 1 0-2h10a1 1 0 0 1 0 2Z"/></symbol><symbol id="left-arrow-icon"><path d="M7.05 14a.93.93 0 0 1-.67-.29L0 7 6.38.29a.91.91 0 0 1 1.34 0 1 1 0 0 1 0 1.42L2.69 7l5 5.29a1 1 0 0 1 0 1.42.93.93 0 0 1-.64.29Z"/></symbol><symbol id="map-pin-icon" viewBox="0 0 14 20"><path d="M0 7.19A7.09 7.09 0 0 1 7 0a7.09 7.09 0 0 1 7 7.19c0 4.28-4.42 10.19-6.23 12.44a1 1 0 0 1-1.53 0C4.42 17.38 0 11.47 0 7.19Zm4.5 0A2.54 2.54 0 0 0 7 9.76a2.57 2.57 0 0 0 0-5.14 2.54 2.54 0 0 0-2.5 2.57Z"/></symbol><symbol id="reset-icon" viewBox="0 0 20 16"><path d="M5.91 8H4.17A5.92 5.92 0 0 1 10 2a5.53 5.53 0 0 1 2.19.44.92.92 0 0 0 1-.23 1 1 0 0 0-.32-1.64A7.46 7.46 0 0 0 10 0a7.89 7.89 0 0 0-7.77 8H.49a.5.5 0 0 0-.34.85l2.71 2.79a.47.47 0 0 0 .69 0l2.71-2.79A.5.5 0 0 0 5.91 8ZM19.85 7.15l-2.71-2.79a.47.47 0 0 0-.68 0l-2.71 2.78a.5.5 0 0 0 .34.86h1.74A5.92 5.92 0 0 1 10 14a5.53 5.53 0 0 1-2.19-.44.92.92 0 0 0-1 .23 1 1 0 0 0 .33 1.64A7.46 7.46 0 0 0 10 16a7.89 7.89 0 0 0 7.77-8h1.74a.5.5 0 0 0 .34-.85Z"/></symbol><symbol id="right-arrow-icon"><path d="M1 14a.93.93 0 0 1-.67-.29 1 1 0 0 1 0-1.42L5.31 7l-5-5.29A1 1 0 0 1 .28.29a.91.91 0 0 1 1.34 0L8 7l-6.38 6.71A.93.93 0 0 1 1 14Z"/></symbol><symbol id="scroll-down-icon"><path d="M20 0A20.2 20.2 0 0 0 0 20.35v21.3A20.2 20.2 0 0 0 20 62a20.2 20.2 0 0 0 20-20.35v-21.3A20.2 20.2 0 0 0 20 0Zm17 41.65A17.2 17.2 0 0 1 20 59 17.2 17.2 0 0 1 3 41.65v-21.3A17.2 17.2 0 0 1 20 3a17.2 17.2 0 0 1 17 17.35Z" style="fill:#242723"/><path d="M20 29.83a1.5 1.5 0 0 1-1.5-1.5V13.92a1.5 1.5 0 0 1 3 0v14.41a1.5 1.5 0 0 1-1.5 1.5Z" style="fill:#242723"/></symbol></svg>