<svg xmlns="http://www.w3.org/2000/svg" viewBox="0 0 20 16"><path d="M5.91,8H4.17A5.92,5.92,0,0,1,10,2a5.53,5.53,0,0,1,2.19.44.92.92,0,0,0,1-.23A1,1,0,0,0,12.87.57,7.46,7.46,0,0,0,10,0,7.89,7.89,0,0,0,2.23,8H.49a.5.5,0,0,0-.34.85l2.71,2.79a.47.47,0,0,0,.69,0L6.26,8.85A.5.5,0,0,0,5.91,8Z"/><path d="M19.85,7.15,17.14,4.36a.47.47,0,0,0-.68,0L13.75,7.14a.5.5,0,0,0,.34.86h1.74A5.92,5.92,0,0,1,10,14a5.53,5.53,0,0,1-2.19-.44.92.92,0,0,0-1,.23,1,1,0,0,0,.33,1.64A7.46,7.46,0,0,0,10,16a7.89,7.89,0,0,0,7.77-8h1.74A.5.5,0,0,0,19.85,7.15Z"/></svg>